<svg width="77" height="72" viewBox="0 0 77 72" fill="none" xmlns="http://www.w3.org/2000/svg">
<g clip-path="url(#clip0_116_91)">
<path d="M59.902 35.1689H53.4309V38.3661H59.902V35.1689Z" fill="black"/>
<path d="M59.902 39.9004H53.4309V43.0975H59.902V39.9004Z" fill="black"/>
<path d="M25.8714 39.9004H19.4003V43.0975H25.8714V39.9004Z" fill="black"/>
<path d="M25.8714 35.1689H19.4003V38.3661H25.8714V35.1689Z" fill="black"/>
<path d="M40.4888 28.7743C41.4477 28.7642 42.3822 28.4706 43.1746 27.9305C43.9671 27.3904 44.582 26.628 44.9419 25.7391C45.3019 24.8503 45.3909 23.8748 45.1977 22.9355C45.0044 21.9962 44.5376 21.1351 43.856 20.4606C43.1743 19.7861 42.3083 19.3283 41.3671 19.1449C40.4258 18.9615 39.4513 19.0607 38.5663 19.4299C37.6813 19.7992 36.9253 20.422 36.3936 21.2201C35.8618 22.0181 35.5781 22.9556 35.578 23.9146C35.6077 25.2029 36.1362 26.4295 37.0522 27.3359C37.9682 28.2424 39.2002 28.758 40.4888 28.7743Z" fill="black"/>
<path d="M45.1183 52.5611C45.131 51.4582 44.8155 50.3764 44.212 49.4532C43.6085 48.53 42.7441 47.807 41.7288 47.3761C40.7135 46.9452 39.593 46.8259 38.5097 47.0333C37.4264 47.2407 36.4291 47.7654 35.6447 48.5408C34.8603 49.3162 34.3241 50.3073 34.1042 51.3881C33.8843 52.4689 33.9907 53.5907 34.4098 54.611C34.8289 55.6312 35.5419 56.5039 36.458 57.118C37.3742 57.7322 38.4523 58.0601 39.5552 58.0602C40.2832 58.0704 41.006 57.9356 41.6813 57.6636C42.3567 57.3917 42.9712 56.988 43.4889 56.4762C44.0067 55.9643 44.4174 55.3546 44.6972 54.6824C44.9769 54.0103 45.1201 53.2891 45.1183 52.5611Z" fill="black"/>
<path d="M73.6114 3.9644C73.9391 3.96945 74.2579 4.07122 74.528 4.25694C74.798 4.44266 75.0071 4.70403 75.129 5.00822C75.2509 5.31242 75.2802 5.64587 75.2132 5.96667C75.1462 6.28746 74.9859 6.58129 74.7524 6.81125C74.5189 7.04121 74.2226 7.19703 73.9009 7.25913C73.5791 7.32123 73.2461 7.28684 72.9438 7.16029C72.6415 7.03375 72.3834 6.82069 72.2018 6.54787C72.0202 6.27505 71.9233 5.95465 71.9233 5.62693C71.925 5.40692 71.97 5.1894 72.0557 4.98678C72.1414 4.78416 72.2662 4.60041 72.423 4.44603C72.5797 4.29165 72.7654 4.16967 72.9693 4.08703C73.1732 4.00439 73.3914 3.96272 73.6114 3.9644Z" fill="black"/>
<path d="M73.6114 63.0479C73.9391 63.0529 74.2579 63.1547 74.528 63.3404C74.798 63.5262 75.0071 63.7875 75.129 64.0917C75.2509 64.3959 75.2802 64.7294 75.2132 65.0502C75.1462 65.371 74.9859 65.6648 74.7524 65.8947C74.5189 66.1247 74.2226 66.2805 73.9009 66.3426C73.5791 66.4047 73.2461 66.3703 72.9438 66.2438C72.6415 66.1172 72.3834 65.9042 72.2018 65.6314C72.0202 65.3585 71.9233 65.0381 71.9233 64.7104C71.925 64.4904 71.97 64.2729 72.0557 64.0703C72.1414 63.8677 72.2662 63.6839 72.423 63.5295C72.5797 63.3752 72.7654 63.2532 72.9693 63.1705C73.1732 63.0879 73.3914 63.0462 73.6114 63.0479Z" fill="black"/>
<path d="M57.4337 10.3589C57.762 10.3614 58.0821 10.4611 58.3539 10.6453C58.6256 10.8295 58.8367 11.09 58.9605 11.394C59.0844 11.698 59.1155 12.0319 59.05 12.3535C58.9844 12.6752 58.825 12.9702 58.592 13.2014C58.359 13.4327 58.0628 13.5897 57.7406 13.6529C57.4185 13.716 57.0849 13.6823 56.7818 13.5561C56.4788 13.4299 56.2199 13.2168 56.0377 12.9437C55.8556 12.6706 55.7584 12.3497 55.7584 12.0214C55.7618 11.5793 55.9398 11.1565 56.2536 10.845C56.5674 10.5336 56.9916 10.3589 57.4337 10.3589Z" fill="black"/>
<path d="M33.2504 0.767139C33.5781 0.772181 33.897 0.873954 34.167 1.05967C34.437 1.24539 34.6461 1.50676 34.768 1.81096C34.8899 2.11515 34.9193 2.44861 34.8522 2.7694C34.7852 3.0902 34.6249 3.38403 34.3914 3.61398C34.1579 3.84394 33.8617 3.99976 33.5399 4.06187C33.2181 4.12397 32.8852 4.08958 32.5829 3.96303C32.2806 3.83648 32.0224 3.62342 31.8408 3.3506C31.6592 3.07779 31.5624 2.75738 31.5623 2.42967C31.564 2.20966 31.609 1.99213 31.6947 1.78951C31.7805 1.58689 31.9053 1.40314 32.062 1.24876C32.2188 1.09438 32.4044 0.972403 32.6083 0.889764C32.8122 0.807126 33.0304 0.765453 33.2504 0.767139Z" fill="black"/>
<path d="M7.37905 3.9644C7.70673 3.96945 8.02564 4.07122 8.29566 4.25694C8.56567 4.44266 8.77477 4.70403 8.89668 5.00822C9.0186 5.31242 9.04788 5.64587 8.98087 5.96667C8.91386 6.28746 8.75356 6.58129 8.52007 6.81125C8.28657 7.04121 7.9903 7.19703 7.66852 7.25913C7.34674 7.32123 7.01378 7.28684 6.71148 7.16029C6.40918 7.03375 6.15106 6.82069 5.96948 6.54787C5.78791 6.27505 5.69102 5.95465 5.69098 5.62693C5.69265 5.40692 5.73762 5.1894 5.82336 4.98678C5.9091 4.78416 6.03394 4.60041 6.19069 4.44603C6.34745 4.29165 6.53306 4.16967 6.73696 4.08703C6.94087 4.00439 7.15904 3.96272 7.37905 3.9644Z" fill="black"/>
<path d="M5.69097 40.668C6.01923 40.6705 6.33938 40.7701 6.61109 40.9544C6.8828 41.1386 7.09391 41.3991 7.21778 41.7031C7.34165 42.0071 7.37274 42.341 7.30715 42.6626C7.24157 42.9843 7.08225 43.2793 6.84924 43.5105C6.61623 43.7418 6.31999 43.8988 5.99785 43.962C5.6757 44.0251 5.34205 43.9914 5.03901 43.8652C4.73597 43.739 4.47707 43.5259 4.29495 43.2528C4.11283 42.9797 4.01563 42.6588 4.01562 42.3305C4.019 41.8884 4.19703 41.4656 4.51085 41.1541C4.82467 40.8427 5.24886 40.668 5.69097 40.668Z" fill="black"/>
<path d="M75.2867 11.126H62.6132C62.5124 11.126 62.4126 11.1458 62.3195 11.1844C62.2264 11.223 62.1419 11.2795 62.0706 11.3507C61.9994 11.422 61.9428 11.5066 61.9043 11.5997C61.8657 11.6928 61.8458 11.7925 61.8458 11.8933C61.8458 11.9941 61.8657 12.0939 61.9043 12.1869C61.9428 12.28 61.9994 12.3646 62.0706 12.4359C62.1419 12.5071 62.2264 12.5637 62.3195 12.6022C62.4126 12.6408 62.5124 12.6606 62.6132 12.6606H74.5322V31.0763L41.5247 6.52208C41.4653 6.46215 41.3945 6.41457 41.3166 6.38211C41.2387 6.34965 41.1551 6.33293 41.0707 6.33293C40.9863 6.33293 40.9027 6.34965 40.8248 6.38211C40.7469 6.41457 40.6762 6.46215 40.6167 6.52208L4.91086 31.332V12.7885H15.3976C15.5962 12.7737 15.7829 12.6882 15.9237 12.5473C16.0645 12.4065 16.1501 12.2198 16.1648 12.0212V5.49899H21.2164V12.0212C21.2315 12.2219 21.3189 12.4102 21.4624 12.5513C21.6058 12.6924 21.7956 12.7767 21.9965 12.7885H25.0913C25.2948 12.7885 25.49 12.7077 25.6339 12.5638C25.7778 12.4199 25.8586 12.2247 25.8586 12.0212C25.8586 11.8177 25.7778 11.6225 25.6339 11.4786C25.49 11.3347 25.2948 11.2539 25.0913 11.2539H22.7638V4.73168C22.749 4.53307 22.6635 4.34635 22.5226 4.20553C22.3818 4.0647 22.1951 3.97913 21.9965 3.96436H15.3976C15.1967 3.97617 15.0069 4.06044 14.8634 4.20155C14.72 4.34265 14.6326 4.53103 14.6174 4.73168V11.2539H4.1947C3.99382 11.2657 3.80406 11.35 3.6606 11.4911C3.51715 11.6322 3.42974 11.8205 3.41461 12.0212V32.8667C3.42389 33.0138 3.46263 33.1575 3.52853 33.2893C3.59444 33.4211 3.68616 33.5383 3.79826 33.634C3.91836 33.6978 4.05229 33.7312 4.1883 33.7312C4.32431 33.7312 4.45823 33.6978 4.57834 33.634L9.75776 30.0532V70.4652H5.74211C5.53861 70.4652 5.34345 70.5461 5.19955 70.69C5.05565 70.8339 4.97479 71.0291 4.97479 71.2326C4.97479 71.4361 5.05565 71.6312 5.19955 71.7751C5.34345 71.919 5.53861 71.9999 5.74211 71.9999H73.6626C73.8661 71.9999 74.0612 71.919 74.2051 71.7751C74.349 71.6312 74.4299 71.4361 74.4299 71.2326C74.4299 71.0291 74.349 70.8339 74.2051 70.69C74.0612 70.5461 73.8661 70.4652 73.6626 70.4652H69.826V29.6695L74.8775 33.5061C75.0053 33.634 75.1333 33.634 75.389 33.634C75.4605 33.6434 75.5331 33.6368 75.6017 33.6147C75.6702 33.5926 75.733 33.5555 75.7855 33.5061C75.9186 33.431 76.0262 33.3178 76.0945 33.1811C76.1629 33.0444 76.1889 32.8903 76.1691 32.7388V12.0212C76.1745 11.9033 76.1554 11.7856 76.1131 11.6754C76.0708 11.5652 76.0062 11.465 75.9234 11.3809C75.8405 11.2969 75.7412 11.2308 75.6317 11.187C75.5221 11.1431 75.4047 11.1224 75.2867 11.126ZM40.4888 17.5203C41.7501 17.5355 42.9788 17.9233 44.0202 18.635C45.0616 19.3468 45.8692 20.3507 46.3414 21.5203C46.8136 22.69 46.9294 23.9732 46.6741 25.2085C46.4187 26.4437 45.8038 27.5759 44.9065 28.4625C44.0093 29.3491 42.8699 29.9505 41.6316 30.1911C40.3934 30.4317 39.1117 30.3006 37.9477 29.8145C36.7838 29.3284 35.7896 28.5088 35.0903 27.459C34.391 26.4092 34.0179 25.176 34.0178 23.9146C34.0177 23.0684 34.1856 22.2306 34.5118 21.4498C34.8379 20.6689 35.3158 19.9606 35.9177 19.3658C36.5196 18.771 37.2336 18.3016 38.0183 17.9848C38.8029 17.668 39.6427 17.5102 40.4888 17.5203ZM17.0729 44.7601C16.9721 44.7601 16.8723 44.7402 16.7792 44.7017C16.6861 44.6631 16.6015 44.6066 16.5303 44.5353C16.459 44.4641 16.4025 44.3795 16.364 44.2864C16.3254 44.1933 16.3055 44.0935 16.3055 43.9928C16.3055 43.892 16.3254 43.7922 16.364 43.6991C16.4025 43.606 16.459 43.5215 16.5303 43.4502C16.6015 43.3789 16.6861 43.3224 16.7792 43.2839C16.8723 43.2453 16.9721 43.2255 17.0729 43.2255H17.853V34.4013C17.8681 34.2007 17.9555 34.0123 18.0989 33.8712C18.2424 33.7301 18.4322 33.6458 18.6331 33.634H26.7794C26.9803 33.6458 27.1701 33.7301 27.3135 33.8712C27.457 34.0123 27.5444 34.2007 27.5595 34.4013V43.2255H28.3268C28.4276 43.2255 28.5274 43.2453 28.6205 43.2839C28.7136 43.3224 28.7982 43.3789 28.8694 43.4502C28.9407 43.5215 28.9972 43.606 29.0357 43.6991C29.0743 43.7922 29.0942 43.892 29.0942 43.9928C29.0942 44.0935 29.0743 44.1933 29.0357 44.2864C28.9972 44.3795 28.9407 44.4641 28.8694 44.5353C28.7982 44.6066 28.7136 44.6631 28.6205 44.7017C28.5274 44.7402 28.4276 44.7601 28.3268 44.7601H17.0729ZM32.3425 70.3374H30.6544V67.6518C30.6544 67.4449 30.7366 67.2464 30.8829 67.1001C31.0292 66.9538 31.2276 66.8716 31.4345 66.8716C31.6414 66.8716 31.8398 66.9538 31.9861 67.1001C32.1324 67.2464 32.2146 67.4449 32.2146 67.6518V70.3374H32.3425ZM48.5073 70.3374H46.832V67.6518C46.8562 67.4637 46.9482 67.2909 47.0906 67.1656C47.233 67.0404 47.4161 66.9713 47.6057 66.9713C47.7954 66.9713 47.9785 67.0404 48.1209 67.1656C48.2633 67.2909 48.3552 67.4637 48.3794 67.6518V70.3374H48.5073ZM54.9784 70.3374H53.303V66.8844C51.7498 64.6462 49.6802 62.8151 47.2693 61.5462C44.8584 60.2774 42.1773 59.608 39.453 59.5949C36.7255 59.5817 34.0367 60.2397 31.6236 61.5109C29.2105 62.7822 27.1472 64.6276 25.6157 66.8844V70.3374H23.9276V66.6287C23.9189 66.5581 23.9271 66.4866 23.9516 66.4198C23.976 66.3531 24.016 66.2932 24.0682 66.245C25.3674 64.2802 27.0415 62.591 28.9946 61.2743C30.9477 59.9576 33.1415 59.0392 35.4501 58.5718C34.1523 57.7106 33.1662 56.4544 32.6379 54.9891C32.1097 53.5238 32.0673 51.9273 32.5171 50.4361C32.9668 48.9448 33.8849 47.638 35.1352 46.7091C36.3855 45.7803 37.9018 45.2787 39.4594 45.2787C41.017 45.2787 42.5332 45.7803 43.7835 46.7091C45.0338 47.638 45.9519 48.9448 46.4016 50.4361C46.8514 51.9273 46.809 53.5238 46.2808 54.9891C45.7525 56.4544 44.7664 57.7106 43.4686 58.5718C48.107 59.5733 52.1824 62.3208 54.8505 66.245C54.8988 66.2955 54.9354 66.3561 54.9575 66.4225C54.9796 66.4888 54.9867 66.5592 54.9784 66.6287V70.3374ZM62.3574 44.7601H50.9755C50.8747 44.7601 50.775 44.7402 50.6819 44.7017C50.5888 44.6631 50.5042 44.6066 50.4329 44.5353C50.3617 44.4641 50.3052 44.3795 50.2666 44.2864C50.228 44.1933 50.2082 44.0935 50.2082 43.9928C50.2082 43.892 50.228 43.7922 50.2666 43.6991C50.3052 43.606 50.3617 43.5215 50.4329 43.4502C50.5042 43.3789 50.5888 43.3224 50.6819 43.2839C50.775 43.2453 50.8747 43.2255 50.9755 43.2255H51.7428V34.4013C51.758 34.2007 51.8454 34.0123 51.9888 33.8712C52.1323 33.7301 52.3221 33.6458 52.523 33.634H60.6693C60.8702 33.6458 61.0599 33.7301 61.2034 33.8712C61.3469 34.0123 61.4343 34.2007 61.4494 34.4013V43.2255H62.2295C62.4281 43.2402 62.6148 43.3258 62.7557 43.4666C62.8965 43.6075 62.9821 43.7942 62.9968 43.9928C63.0112 44.1788 62.9524 44.363 62.833 44.5063C62.7136 44.6496 62.5429 44.7407 62.3574 44.7601Z" fill="black"/>
<path d="M6.47107 59.0835C6.47868 58.442 6.29541 57.8127 5.94455 57.2756C5.59368 56.7385 5.09106 56.3178 4.50056 56.067C3.91005 55.8162 3.2583 55.7467 2.62816 55.8671C1.99802 55.9876 1.41794 56.2927 0.961593 56.7436C0.505251 57.1946 0.193265 57.771 0.0652801 58.3996C-0.0627046 59.0283 -0.000903654 59.6808 0.242818 60.2743C0.486539 60.8677 0.901185 61.3753 1.43406 61.7326C1.96694 62.0898 2.594 62.2806 3.23555 62.2806C3.65909 62.2874 4.07973 62.2097 4.47285 62.0519C4.86596 61.8941 5.22365 61.6595 5.52496 61.3617C5.82627 61.064 6.06512 60.7091 6.22758 60.3179C6.39004 59.9267 6.47283 59.5071 6.47107 59.0835Z" fill="black"/>
<path d="M63.1247 6.39421C63.7559 6.38916 64.3715 6.19737 64.8939 5.843C65.4163 5.48864 65.8221 4.98757 66.0602 4.40294C66.2982 3.81831 66.3579 3.17629 66.2317 2.5578C66.1054 1.93931 65.7989 1.37203 65.3508 0.927451C64.9027 0.482876 64.333 0.180894 63.7135 0.05959C63.094 -0.0617142 62.4525 0.00307285 61.8698 0.245792C61.287 0.48851 60.7892 0.898293 60.439 1.42349C60.0889 1.9487 59.902 2.56581 59.9019 3.19706C59.9002 3.61956 59.9826 4.03819 60.1443 4.42854C60.3059 4.81889 60.5437 5.17316 60.8436 5.47072C61.1435 5.76828 61.4997 6.00319 61.8913 6.16174C62.2829 6.32029 62.7022 6.39931 63.1247 6.39421Z" fill="black"/>
<path d="M74.3915 59.9787V40.7957C74.3915 40.5888 74.3093 40.3904 74.163 40.2441C74.0167 40.0978 73.8183 40.0156 73.6114 40.0156C73.4045 40.0156 73.2061 40.0978 73.0598 40.2441C72.9135 40.3904 72.8313 40.5888 72.8313 40.7957V59.9787C72.8313 60.1856 72.9135 60.384 73.0598 60.5303C73.2061 60.6766 73.4045 60.7588 73.6114 60.7588C73.8183 60.7588 74.0167 60.6766 74.163 60.5303C74.3093 60.384 74.3915 60.1856 74.3915 59.9787Z" fill="black"/>
</g>
<defs>
<clipPath id="clip0_116_91">
<rect width="76.0668" height="72" fill="white"/>
</clipPath>
</defs>
</svg>
