<svg width="58" height="57" viewBox="0 0 58 57" fill="none" xmlns="http://www.w3.org/2000/svg">
<g clip-path="url(#clip0_66_5)">
<path d="M18.8275 33.7H16.2934V38.7H18.8275V33.7Z" fill="#071013"/>
<path d="M41.6242 33.7H39.0901V38.7H41.6242V33.7Z" fill="#071013"/>
<path d="M37.768 38.7V25H20.0094V38.7H25.0776V33.8C25.0855 32.7612 25.5051 31.7677 26.2446 31.0369C26.9841 30.306 27.9834 29.8973 29.0239 29.9C29.5422 29.8892 30.0574 29.9824 30.539 30.174C31.0205 30.3656 31.4587 30.6516 31.8276 31.0153C32.1965 31.3789 32.4886 31.8127 32.6866 32.291C32.8846 32.7693 32.9844 33.2825 32.9803 33.8V38.7H37.768Z" fill="#071013"/>
<path d="M16.8943 1.19985C16.1667 1.20531 15.462 1.45477 14.8935 1.90816C14.3249 2.36155 13.9255 2.99256 13.7593 3.69985H19.9392C19.8188 2.98669 19.4443 2.34104 18.8848 1.88167C18.3253 1.4223 17.6185 1.18013 16.8943 1.19985Z" fill="#071013"/>
<path d="M13.0481 50H12.5373V49.5V49H51.7506V45.2H43.5473C43.3879 45.2 43.2351 45.1368 43.1224 45.0242C43.0097 44.9117 42.9463 44.7591 42.9463 44.6C42.9463 44.4408 43.0097 44.2882 43.1224 44.1757C43.2351 44.0632 43.3879 44 43.5473 44H51.7506V5H46.6924C46.5376 6.0473 46.0139 7.00519 45.2153 7.70166C44.4167 8.39813 43.3956 8.78754 42.3354 8.79999C42.176 8.79999 42.0231 8.73679 41.9104 8.62427C41.7977 8.51175 41.7344 8.35908 41.7344 8.19995C41.7344 8.04082 41.7977 7.88822 41.9104 7.7757C42.0231 7.66317 42.176 7.59998 42.3354 7.59998C43.063 7.59451 43.7677 7.34505 44.3363 6.89166C44.9048 6.43827 45.3042 5.80726 45.4704 5.09998H21.2514C21.1004 6.14897 20.5779 7.10919 19.7785 7.8064C18.979 8.5036 17.9558 8.89159 16.8943 8.89996C16.7349 8.89996 16.5821 8.83677 16.4694 8.72424C16.3567 8.61172 16.2934 8.45912 16.2934 8.29999C16.2934 8.14086 16.3567 7.98825 16.4694 7.87573C16.5821 7.76321 16.7349 7.69995 16.8943 7.69995C17.6237 7.69672 18.3307 7.44832 18.9013 6.99475C19.4719 6.54118 19.8728 5.9089 20.0394 5.19995H7.37898V12.7H44.7593C44.9187 12.7 45.0715 12.7632 45.1842 12.8757C45.2969 12.9883 45.3602 13.1409 45.3602 13.3C45.3602 13.4591 45.2969 13.6117 45.1842 13.7242C45.0715 13.8368 44.9187 13.9 44.7593 13.9H7.37898V38.9H15.0013V33.1C15.0131 32.9431 15.0816 32.7958 15.1939 32.6854C15.3063 32.5751 15.4549 32.5092 15.6123 32.5H18.7573V25H15.6123C15.4691 24.9968 15.3312 24.9457 15.2205 24.8551C15.1097 24.7645 15.0326 24.6395 15.0013 24.5C14.9709 24.4342 14.9549 24.3627 14.9544 24.2903C14.9538 24.2179 14.9687 24.1462 14.9981 24.08C15.0275 24.0137 15.0706 23.9545 15.1247 23.9062C15.1788 23.8579 15.2426 23.8217 15.3118 23.8L28.6834 16.3C28.7777 16.2509 28.8825 16.2253 28.9888 16.2253C29.0952 16.2253 29.2 16.2509 29.2943 16.3L42.4656 23.8C42.582 23.8524 42.6813 23.9365 42.7521 24.0426C42.823 24.1487 42.8625 24.2725 42.8662 24.4C42.8544 24.5569 42.7859 24.7042 42.6736 24.8145C42.5612 24.9249 42.4126 24.9908 42.2552 25H39.1202V32.5H42.2552C42.4126 32.5092 42.5612 32.5751 42.6736 32.6854C42.7859 32.7958 42.8544 32.9431 42.8662 33.1V39.4C42.8544 39.5569 42.7859 39.7042 42.6736 39.8145C42.5612 39.9249 42.4126 39.9908 42.2552 40H32.3292C32.1719 39.9908 32.0233 39.9249 31.9109 39.8145C31.7985 39.7042 31.7301 39.5569 31.7182 39.4V33.9C31.7182 33.2024 31.4407 32.5335 30.9467 32.0403C30.4527 31.5471 29.7826 31.27 29.084 31.27C28.3853 31.27 27.7153 31.5471 27.2213 32.0403C26.7273 32.5335 26.4497 33.2024 26.4497 33.9V39.4C26.4382 39.5553 26.3711 39.7013 26.2608 39.8114C26.1506 39.9215 26.0043 39.9884 25.8488 40H7.47915V43.8H14.3703C14.5296 43.8 14.6825 43.8632 14.7952 43.9757C14.9079 44.0882 14.9712 44.2408 14.9712 44.4C14.9712 44.5591 14.9079 44.7117 14.7952 44.8242C14.6825 44.9367 14.5296 45 14.3703 45H7.35895V50.6C7.35895 53.8 9.88302 56.1 13.3686 56.2C14.1681 56.1549 14.9212 55.8109 15.4781 55.2365C16.0349 54.662 16.3546 53.8992 16.3735 53.1C16.3175 52.2581 15.9426 51.4692 15.3249 50.8934C14.7073 50.3176 13.8932 49.9981 13.0481 50ZM48.6155 11.9C48.8721 11.9039 49.1219 11.9835 49.3334 12.1287C49.5448 12.2739 49.7086 12.4783 49.8041 12.7162C49.8996 12.9541 49.9225 13.2148 49.87 13.4656C49.8176 13.7165 49.692 13.9462 49.5091 14.126C49.3263 14.3059 49.0942 14.4277 48.8422 14.4763C48.5902 14.5248 48.3294 14.4979 48.0927 14.399C47.8559 14.3 47.6537 14.1334 47.5115 13.9201C47.3693 13.7068 47.2934 13.4562 47.2934 13.2C47.2891 13.0264 47.3206 12.8538 47.3858 12.6928C47.451 12.5318 47.5485 12.3859 47.6725 12.2641C47.7964 12.1423 47.944 12.0471 48.1062 11.9845C48.2684 11.9219 48.4417 11.8931 48.6155 11.9ZM18.2165 43.1C18.4731 43.1039 18.7229 43.1835 18.9343 43.3287C19.1458 43.474 19.3096 43.6783 19.4051 43.9162C19.5006 44.1541 19.5235 44.4148 19.471 44.6656C19.4185 44.9165 19.293 45.1462 19.1101 45.326C18.9272 45.5059 18.6952 45.6277 18.4432 45.6763C18.1912 45.7248 17.9304 45.698 17.6936 45.599C17.4569 45.5 17.2547 45.3334 17.1125 45.1201C16.9702 44.9068 16.8944 44.6562 16.8943 44.4C16.9021 44.0542 17.0446 43.7251 17.2914 43.4824C17.5382 43.2397 17.87 43.1025 18.2165 43.1Z" fill="#071013"/>
<path d="M42.2252 1.19985C41.4976 1.20531 40.7929 1.45477 40.2243 1.90816C39.6558 2.36155 39.2563 2.99256 39.0901 3.69985H45.2701C45.1497 2.98669 44.7752 2.34104 44.2157 1.88167C43.6562 1.4223 42.9493 1.18013 42.2252 1.19985Z" fill="#071013"/>
<path d="M2.31083 53.7C2.05373 53.7019 1.80297 53.7798 1.59017 53.9239C1.37736 54.0679 1.21202 54.2717 1.115 54.5094C1.01799 54.7471 0.993624 55.0081 1.04499 55.2596C1.09636 55.5112 1.22115 55.7419 1.40365 55.9227C1.58614 56.1035 1.81817 56.2263 2.07048 56.2757C2.32278 56.3251 2.58407 56.2987 2.82142 56.2C3.05876 56.1013 3.26153 55.9348 3.40417 55.7212C3.54681 55.5076 3.62293 55.2567 3.62294 55C3.6152 54.6559 3.47417 54.3282 3.22948 54.0858C2.9848 53.8433 2.65551 53.705 2.31083 53.7Z" fill="#071013"/>
<path d="M52.3616 50H16.1932C16.6517 50.3796 17.0237 50.8524 17.2846 51.387C17.5454 51.9216 17.6889 52.5056 17.7057 53.1C17.7078 53.6878 17.5827 54.2691 17.339 54.8041C17.0952 55.3392 16.7386 55.8153 16.2934 56.1999H52.1613C53.0295 56.2435 53.8797 55.9418 54.5255 55.3607C55.1714 54.7796 55.5602 53.9667 55.6068 53.1C55.6072 52.6808 55.5225 52.266 55.3578 51.8804C55.193 51.4949 54.9517 51.1467 54.6484 50.8569C54.345 50.5672 53.986 50.3418 53.5929 50.1945C53.1999 50.0472 52.781 49.9811 52.3616 50Z" fill="#071013"/>
<path d="M28.9538 17.6001L18.0162 23.7001H19.4285H38.4792H39.8915L28.9538 17.6001Z" fill="#071013"/>
<path d="M56.8187 0C56.5621 0.00394243 56.3124 0.0834774 56.1009 0.228699C55.8894 0.37392 55.7256 0.578298 55.6301 0.816162C55.5347 1.05403 55.5117 1.31477 55.5642 1.56561C55.6167 1.81646 55.7422 2.04626 55.9251 2.22607C56.108 2.40589 56.34 2.52773 56.592 2.57629C56.8441 2.62486 57.1048 2.59792 57.3416 2.49896C57.5784 2.40001 57.7805 2.23341 57.9227 2.02008C58.065 1.80675 58.1409 1.55625 58.1409 1.29999C58.1331 0.954199 57.9907 0.625022 57.7438 0.382324C57.497 0.139627 57.1652 0.00251278 56.8187 0Z" fill="#071013"/>
<path d="M56.2077 9.30005C56.4648 9.30202 56.7156 9.37995 56.9284 9.52399C57.1412 9.66803 57.3065 9.87172 57.4036 10.1094C57.5006 10.3471 57.5249 10.6082 57.4736 10.8597C57.4222 11.1113 57.2974 11.342 57.1149 11.5228C56.9324 11.7036 56.7004 11.8264 56.4481 11.8757C56.1958 11.9251 55.9345 11.8988 55.6972 11.8001C55.4598 11.7014 55.257 11.5348 55.1144 11.3212C54.9718 11.1077 54.8956 10.8567 54.8956 10.6C54.8983 10.2543 55.0377 9.92369 55.2835 9.68018C55.5292 9.43666 55.8615 9.30004 56.2077 9.30005Z" fill="#071013"/>
<path d="M2.98193 34.2998C3.23857 34.3038 3.48832 34.3834 3.69979 34.5286C3.91127 34.6738 4.07505 34.8782 4.17054 35.1161C4.26603 35.3539 4.28897 35.6146 4.23649 35.8655C4.18401 36.1163 4.05844 36.3461 3.87557 36.5259C3.69269 36.7057 3.46067 36.8276 3.20864 36.8761C2.95662 36.9247 2.69585 36.8978 2.45908 36.7989C2.22232 36.6999 2.02014 36.5333 1.87793 36.3199C1.73572 36.1066 1.65982 35.8561 1.65979 35.5998C1.6611 35.4278 1.69635 35.2577 1.7635 35.0993C1.83066 34.9408 1.92841 34.7971 2.05118 34.6764C2.17396 34.5557 2.31934 34.4603 2.47904 34.3957C2.63874 34.3311 2.80962 34.2985 2.98193 34.2998Z" fill="#071013"/>
<path d="M2.98193 38.0999C3.23857 38.1038 3.48832 38.1834 3.69979 38.3287C3.91127 38.4739 4.07505 38.6783 4.17054 38.9161C4.26603 39.154 4.28897 39.4147 4.23649 39.6656C4.18401 39.9164 4.05844 40.1462 3.87557 40.326C3.69269 40.5058 3.46067 40.6276 3.20864 40.6762C2.95662 40.7247 2.69585 40.6979 2.45908 40.5989C2.22232 40.5 2.02014 40.3334 1.87793 40.12C1.73572 39.9067 1.65982 39.6561 1.65979 39.3999C1.6611 39.2278 1.69635 39.0578 1.7635 38.8993C1.83066 38.7409 1.92841 38.5972 2.05118 38.4765C2.17396 38.3558 2.31934 38.2604 2.47904 38.1958C2.63874 38.1312 2.80962 38.0986 2.98193 38.0999Z" fill="#071013"/>
<path d="M56.2077 13.1001C56.4648 13.1021 56.7156 13.18 56.9284 13.324C57.1412 13.4681 57.3065 13.6718 57.4036 13.9095C57.5006 14.1472 57.5249 14.4083 57.4736 14.6598C57.4222 14.9113 57.2974 15.142 57.1149 15.3228C56.9324 15.5036 56.7004 15.6264 56.4481 15.6758C56.1958 15.7251 55.9345 15.6988 55.6972 15.6002C55.4598 15.5015 55.257 15.3348 55.1144 15.1213C54.9718 14.9077 54.8956 14.6568 54.8956 14.4001C54.8983 14.0544 55.0377 13.7237 55.2835 13.4802C55.5292 13.2367 55.8615 13.1001 56.2077 13.1001Z" fill="#071013"/>
<path d="M56.2077 16.8C56.4648 16.802 56.7156 16.8799 56.9284 17.024C57.1412 17.168 57.3065 17.3717 57.4036 17.6094C57.5006 17.8471 57.5249 18.1082 57.4736 18.3597C57.4222 18.6113 57.2974 18.842 57.1149 19.0228C56.9324 19.2036 56.7004 19.3264 56.4481 19.3757C56.1958 19.4251 55.9345 19.3988 55.6972 19.3001C55.4598 19.2014 55.257 19.0348 55.1144 18.8212C54.9718 18.6077 54.8956 18.3567 54.8956 18.1C54.8983 17.7543 55.0377 17.4237 55.2835 17.1802C55.5292 16.9367 55.8615 16.8 56.2077 16.8Z" fill="#071013"/>
<path d="M56.2077 20.6001C56.4648 20.6021 56.7156 20.68 56.9284 20.824C57.1412 20.9681 57.3065 21.1718 57.4036 21.4095C57.5006 21.6472 57.5249 21.9083 57.4736 22.1598C57.4222 22.4113 57.2974 22.642 57.1149 22.8228C56.9324 23.0036 56.7004 23.1264 56.4481 23.1758C56.1958 23.2251 55.9345 23.1988 55.6972 23.1002C55.4598 23.0015 55.257 22.8348 55.1144 22.6213C54.9718 22.4077 54.8956 22.1568 54.8956 21.9001C54.8983 21.5544 55.0377 21.2237 55.2835 20.9802C55.5292 20.7367 55.8615 20.6001 56.2077 20.6001Z" fill="#071013"/>
<path d="M56.2077 24.3C56.4648 24.302 56.7156 24.3799 56.9284 24.524C57.1412 24.668 57.3065 24.8717 57.4036 25.1094C57.5006 25.3471 57.5249 25.6082 57.4736 25.8597C57.4222 26.1113 57.2974 26.342 57.1149 26.5228C56.9324 26.7036 56.7004 26.8264 56.4481 26.8757C56.1958 26.9251 55.9345 26.8988 55.6972 26.8001C55.4598 26.7014 55.257 26.5348 55.1144 26.3212C54.9718 26.1077 54.8956 25.8567 54.8956 25.6C54.8983 25.2543 55.0377 24.9237 55.2835 24.6802C55.5292 24.4367 55.8615 24.3 56.2077 24.3Z" fill="#071013"/>
<path d="M56.2077 28.1001C56.4648 28.1021 56.7156 28.18 56.9284 28.324C57.1412 28.4681 57.3065 28.6718 57.4036 28.9095C57.5006 29.1472 57.5249 29.4083 57.4736 29.6598C57.4222 29.9113 57.2974 30.142 57.1149 30.3228C56.9324 30.5036 56.7004 30.6264 56.4481 30.6758C56.1958 30.7251 55.9345 30.6988 55.6972 30.6002C55.4598 30.5015 55.257 30.3348 55.1144 30.1213C54.9718 29.9077 54.8956 29.6568 54.8956 29.4001C54.8983 29.0544 55.0377 28.7237 55.2835 28.4802C55.5292 28.2367 55.8615 28.1001 56.2077 28.1001Z" fill="#071013"/>
<path d="M56.2077 31.8C56.4648 31.802 56.7156 31.8799 56.9284 32.024C57.1412 32.168 57.3065 32.3717 57.4036 32.6094C57.5006 32.8471 57.5249 33.1082 57.4736 33.3597C57.4222 33.6113 57.2974 33.842 57.1149 34.0228C56.9324 34.2036 56.7004 34.3264 56.4481 34.3757C56.1958 34.4251 55.9345 34.3988 55.6972 34.3001C55.4598 34.2014 55.257 34.0348 55.1144 33.8212C54.9718 33.6077 54.8956 33.3567 54.8956 33.1C54.8983 32.7543 55.0377 32.4237 55.2835 32.1802C55.5292 31.9367 55.8615 31.8 56.2077 31.8Z" fill="#071013"/>
<path d="M56.2077 35.6001C56.4648 35.6021 56.7156 35.68 56.9284 35.824C57.1412 35.9681 57.3065 36.1718 57.4036 36.4095C57.5006 36.6472 57.5249 36.9083 57.4736 37.1598C57.4222 37.4113 57.2974 37.642 57.1149 37.8228C56.9324 38.0036 56.7004 38.1264 56.4481 38.1758C56.1958 38.2251 55.9345 38.1988 55.6972 38.1002C55.4598 38.0015 55.257 37.8348 55.1144 37.6213C54.9718 37.4077 54.8956 37.1568 54.8956 36.9001C54.8983 36.5544 55.0377 36.2237 55.2835 35.9802C55.5292 35.7367 55.8615 35.6001 56.2077 35.6001Z" fill="#071013"/>
<path d="M2.9819 32.5C3.13745 32.4884 3.28367 32.4215 3.39397 32.3114C3.50426 32.2013 3.5713 32.0553 3.58287 31.9V1.89996C3.56389 1.7529 3.49191 1.61776 3.38038 1.51984C3.26885 1.42191 3.1254 1.36792 2.97688 1.36792C2.82836 1.36792 2.68493 1.42191 2.5734 1.51984C2.46187 1.61776 2.38989 1.7529 2.37091 1.89996V31.9C2.31081 32.2 2.6113 32.5 2.9819 32.5Z" fill="#071013"/>
</g>
<defs>
<clipPath id="clip0_66_5">
<rect width="57.05" height="56.3" fill="white"/>
</clipPath>
</defs>
</svg>
