<svg width="59" height="57" viewBox="0 0 59 57" fill="none" xmlns="http://www.w3.org/2000/svg">
<g clip-path="url(#clip0_66_46)">
<path d="M5.94344 44.1001C5.43871 44.1001 4.95466 44.3003 4.59776 44.6566C4.24087 45.0129 4.04041 45.4962 4.04041 46.0001C4.04041 46.504 4.24087 46.9873 4.59776 47.3436C4.95466 47.6999 5.43871 47.9001 5.94344 47.9001C6.19771 47.9112 6.45152 47.8699 6.68909 47.7787C6.92665 47.6875 7.1429 47.5485 7.32427 47.3702C7.50564 47.1919 7.64825 46.9783 7.74328 46.7426C7.8383 46.5068 7.88367 46.2541 7.87655 46.0001C7.85171 45.4991 7.63923 45.0256 7.28117 44.6737C6.9231 44.3218 6.44561 44.117 5.94344 44.1001Z" fill="#071013"/>
<path d="M57.2162 40.4C57.2201 40.1377 57.1457 39.8802 57.0025 39.6603C56.8592 39.4404 56.6535 39.2681 56.4117 39.1654C56.1699 39.0627 55.903 39.0343 55.6449 39.0837C55.3869 39.1332 55.1494 39.2583 54.9629 39.4431C54.7764 39.6279 54.6493 39.864 54.5978 40.1212C54.5462 40.3785 54.5726 40.6452 54.6736 40.8874C54.7746 41.1296 54.9456 41.3363 55.1648 41.481C55.3839 41.6257 55.6413 41.702 55.9041 41.7C56.2487 41.6949 56.578 41.5566 56.8227 41.3142C57.0674 41.0718 57.2084 40.7441 57.2162 40.4Z" fill="#071013"/>
<path d="M36.1422 54.0999L29.8621 51.5999C29.7394 51.5545 29.6335 51.4726 29.5588 51.3653C29.4841 51.2581 29.4441 51.1306 29.4441 50.9999C29.4441 50.8693 29.4841 50.7418 29.5588 50.6345C29.6335 50.5272 29.7394 50.4454 29.8621 50.3999L36.1422 47.8999H49.6139V10.8999C49.6153 10.3306 49.5032 9.76675 49.2841 9.24115C49.065 8.71555 48.7433 8.23875 48.3378 7.83853C47.9322 7.43831 47.451 7.12269 46.922 6.91003C46.3931 6.69738 45.827 6.59197 45.2569 6.59993H15.4688C14.7668 5.99369 13.8625 5.67251 12.9347 5.69992C12.4323 5.69729 11.9342 5.79349 11.469 5.98303C11.0038 6.17258 10.5805 6.45176 10.2234 6.80463C9.86623 7.15749 9.58215 7.57713 9.38744 8.0396C9.19273 8.50206 9.09118 8.99827 9.08856 9.49992V32.5999C9.08856 33.2709 8.82157 33.9144 8.34633 34.3889C7.8711 34.8634 7.22652 35.1299 6.55444 35.1299C5.88236 35.1299 5.23785 34.8634 4.76261 34.3889C4.28738 33.9144 4.02039 33.2709 4.02039 32.5999V5.09993C4.00141 4.95286 3.92944 4.81773 3.81791 4.7198C3.70638 4.62188 3.56295 4.56787 3.41443 4.56787C3.26591 4.56787 3.12241 4.62188 3.01089 4.7198C2.89936 4.81773 2.82739 4.95286 2.80841 5.09993V32.5999C2.85878 33.5858 3.28655 34.5146 4.00327 35.1946C4.71999 35.8746 5.67093 36.2538 6.65965 36.2538C7.64837 36.2538 8.59932 35.8746 9.31604 35.1946C10.0328 34.5146 10.4605 33.5858 10.5108 32.5999V9.49992C10.6037 8.90341 10.9071 8.35969 11.3663 7.96696C11.8255 7.57424 12.4102 7.35838 13.0149 7.35838C13.6195 7.35838 14.2043 7.57424 14.6635 7.96696C15.1227 8.35969 15.4261 8.90341 15.5189 9.49992V56.5999H49.664V54.0999H36.1422ZM35.1406 45.3999H19.926C19.7667 45.3999 19.6138 45.3367 19.5011 45.2242C19.3884 45.1117 19.325 44.9591 19.325 44.7999C19.325 44.6408 19.3884 44.4882 19.5011 44.3757C19.6138 44.2631 19.7667 44.1999 19.926 44.1999H35.1306C35.29 44.1999 35.4428 44.2631 35.5555 44.3757C35.6682 44.4882 35.7315 44.6408 35.7315 44.7999C35.7315 44.9591 35.6682 45.1117 35.5555 45.2242C35.4428 45.3367 35.29 45.3999 35.1306 45.3999H35.1406ZM45.4773 22.4999C45.5937 22.5524 45.693 22.6364 45.7638 22.7425C45.8346 22.8486 45.8742 22.9725 45.8779 23.0999C45.866 23.2568 45.7976 23.4041 45.6852 23.5145C45.5729 23.6248 45.4242 23.6907 45.2669 23.6999H42.3322V30.6999H45.2669C45.4242 30.7092 45.5729 30.7751 45.6852 30.8854C45.7976 30.9957 45.866 31.143 45.8779 31.2999V38.4999C45.866 38.6568 45.7976 38.8041 45.6852 38.9144C45.5729 39.0248 45.4242 39.0907 45.2669 39.0999H35.8517C35.6944 39.0907 35.5458 39.0248 35.4334 38.9144C35.3211 38.8041 35.2526 38.6568 35.2407 38.4999V32.0999C35.2407 31.4555 34.9843 30.8374 34.5278 30.3817C34.0714 29.9259 33.4523 29.6699 32.8068 29.6699C32.1613 29.6699 31.5422 29.9259 31.0858 30.3817C30.6293 30.8374 30.3729 31.4555 30.3729 32.0999V38.4999C30.3613 38.6552 30.2943 38.8012 30.184 38.9113C30.0737 39.0214 29.9274 39.0884 29.7719 39.0999H20.2365C20.0792 39.0907 19.9306 39.0248 19.8182 38.9144C19.7058 38.8041 19.6374 38.6568 19.6256 38.4999V31.2999C19.6374 31.143 19.7058 30.9957 19.8182 30.8854C19.9306 30.7751 20.0792 30.7092 20.2365 30.6999H22.8708V23.6999H19.926C19.7841 23.6962 19.6476 23.6449 19.5386 23.5541C19.4295 23.4634 19.3543 23.3386 19.325 23.1999C19.2961 23.1346 19.2809 23.064 19.2805 22.9925C19.28 22.921 19.2944 22.8503 19.3226 22.7846C19.3508 22.7189 19.3922 22.6597 19.4444 22.6107C19.4965 22.5618 19.5582 22.524 19.6256 22.4999L32.296 15.3999C32.3885 15.3509 32.4917 15.3253 32.5964 15.3253C32.7012 15.3253 32.8044 15.3509 32.897 15.3999L45.4773 22.4999ZM43.9548 9.69992C44.2114 9.70386 44.4612 9.78344 44.6727 9.92867C44.8842 10.0739 45.0479 10.2783 45.1434 10.5161C45.2389 10.754 45.2618 11.0147 45.2093 11.2656C45.1568 11.5164 45.0313 11.7462 44.8484 11.926C44.6656 12.1058 44.4335 12.2277 44.1815 12.2762C43.9295 12.3248 43.6687 12.2979 43.432 12.1989C43.1952 12.1 42.993 11.9334 42.8508 11.72C42.7086 11.5067 42.6327 11.2562 42.6327 10.9999C42.6404 10.6558 42.7814 10.3282 43.0261 10.0857C43.2708 9.84331 43.6001 9.70501 43.9448 9.69992H43.9548ZM16.7008 10.3999H40.0685C40.2279 10.3999 40.3808 10.4631 40.4935 10.5757C40.6062 10.6882 40.6695 10.8408 40.6695 10.9999C40.6695 11.1591 40.6062 11.3117 40.4935 11.4242C40.3808 11.5367 40.2279 11.5999 40.0685 11.5999H16.6908L16.7008 10.3999ZM23.7121 52.8999H19.8559C19.6965 52.8999 19.5437 52.8367 19.431 52.7242C19.3183 52.6117 19.2549 52.4591 19.2549 52.2999C19.2549 52.1408 19.3183 51.9882 19.431 51.8757C19.5437 51.7631 19.6965 51.6999 19.8559 51.6999H23.7121C23.8677 51.7115 24.0139 51.7784 24.1242 51.8885C24.2345 51.9986 24.3016 52.1446 24.3131 52.2999C24.3163 52.3822 24.3018 52.4641 24.2708 52.5403C24.2398 52.6166 24.193 52.6854 24.1333 52.7421C24.0736 52.7989 24.0025 52.8423 23.9247 52.8695C23.8469 52.8967 23.7642 52.9071 23.6821 52.8999H23.7121ZM26.2462 49.0999H19.8559C19.6965 49.0999 19.5437 49.0367 19.431 48.9242C19.3183 48.8117 19.2549 48.6591 19.2549 48.4999C19.2549 48.3408 19.3183 48.1882 19.431 48.0757C19.5437 47.9631 19.6965 47.8999 19.8559 47.8999H26.2462C26.4018 47.9115 26.548 47.9784 26.6583 48.0885C26.7686 48.1986 26.8356 48.3446 26.8472 48.4999C26.8503 48.5822 26.836 48.6641 26.8049 48.7404C26.7739 48.8166 26.727 48.8854 26.6673 48.9421C26.6076 48.9989 26.5365 49.0423 26.4587 49.0695C26.381 49.0967 26.2983 49.1071 26.2162 49.0999H26.2462Z" fill="#071013"/>
<path d="M22.2598 22.4H23.4817H41.611H42.8329L32.4963 16.7L22.2598 22.4Z" fill="#071013"/>
<path d="M24.0427 31.3V37.8H28.8104V32C28.8104 31.008 29.205 30.0568 29.9075 29.3554C30.61 28.654 31.5629 28.26 32.5564 28.26C33.5499 28.26 34.5027 28.654 35.2053 29.3554C35.9078 30.0568 36.3024 31.008 36.3024 32V37.8H40.97V23.7H24.0427V31.3Z" fill="#071013"/>
<path d="M42.0216 49.1001H39.4875V52.9001H42.0216V49.1001Z" fill="#071013"/>
<path d="M22.8708 32H20.537V37.9H22.8708V32Z" fill="#071013"/>
<path d="M57.2162 7.89997C57.7101 7.89405 58.1913 7.74241 58.5991 7.46414C59.0069 7.18586 59.3232 6.79337 59.5081 6.33607C59.693 5.87876 59.7384 5.37707 59.6384 4.89411C59.5384 4.41115 59.2975 3.9685 58.9461 3.62187C58.5948 3.27523 58.1486 3.04009 57.6637 2.94604C57.1788 2.85198 56.6769 2.9032 56.221 3.09327C55.7652 3.28334 55.376 3.60377 55.1021 4.01421C54.8283 4.42466 54.6822 4.9068 54.6821 5.39997C54.7143 6.05778 54.9924 6.67959 55.4616 7.1425C55.9309 7.6054 56.557 7.87571 57.2162 7.89997Z" fill="#071013"/>
<path d="M44.5558 32H42.222V37.9H44.5558V32Z" fill="#071013"/>
<path d="M54.7823 49.1001H43.3338V52.9001H54.7823V49.1001Z" fill="#071013"/>
<path d="M57.9274 49.1001H56.0042V52.9001H57.9274C58.1786 52.9014 58.4276 52.8533 58.6602 52.7585C58.8928 52.6638 59.1045 52.5242 59.2831 52.3477C59.4616 52.1713 59.6036 51.9615 59.701 51.7303C59.7983 51.499 59.8491 51.2509 59.8504 51.0001C59.815 50.5045 59.6004 50.0386 59.2466 49.6891C58.8929 49.3397 58.4241 49.1303 57.9274 49.1001Z" fill="#071013"/>
<path d="M36.4527 52.9001H38.2756V49.1001H36.4527L31.685 51.0001L36.4527 52.9001Z" fill="#071013"/>
<path d="M55.4934 15C55.7505 15.002 56.0012 15.0799 56.214 15.2239C56.4268 15.368 56.5921 15.5717 56.6892 15.8094C56.7862 16.0471 56.8106 16.3082 56.7592 16.5597C56.7079 16.8112 56.583 17.0419 56.4006 17.2227C56.2181 17.4035 55.986 17.5264 55.7337 17.5757C55.4814 17.6251 55.2201 17.5987 54.9828 17.5001C54.7455 17.4014 54.5426 17.2348 54.4 17.0212C54.2574 16.8076 54.1813 16.5567 54.1813 16.3C54.1839 15.9543 54.3233 15.6237 54.5691 15.3802C54.8149 15.1366 55.1471 15 55.4934 15Z" fill="#071013"/>
<path d="M9.89984 37.4999C10.1565 37.5039 10.4063 37.5834 10.6177 37.7287C10.8292 37.8739 10.993 38.0783 11.0885 38.3161C11.1839 38.554 11.2068 38.8147 11.1544 39.0656C11.1019 39.3164 10.9764 39.5462 10.7935 39.726C10.6106 39.9058 10.3785 40.0276 10.1265 40.0762C9.8745 40.1248 9.61378 40.0979 9.37702 39.9989C9.14026 39.9 8.93803 39.7334 8.79582 39.52C8.65361 39.3067 8.57773 39.0562 8.5777 38.7999C8.57768 38.6275 8.612 38.4568 8.67869 38.2978C8.74538 38.1387 8.8431 37.9945 8.96614 37.8735C9.08918 37.7526 9.23506 37.6572 9.39536 37.5931C9.55566 37.5289 9.72717 37.4973 9.89984 37.4999Z" fill="#071013"/>
<path d="M6.01361 52.5C6.27025 52.504 6.52002 52.5836 6.7315 52.7288C6.94298 52.874 7.10674 53.0784 7.20223 53.3163C7.29772 53.5541 7.32068 53.8149 7.26819 54.0657C7.21571 54.3165 7.09013 54.5463 6.90726 54.7261C6.72439 54.9059 6.49237 55.0278 6.24035 55.0763C5.98833 55.1249 5.72755 55.098 5.49079 54.999C5.25403 54.9001 5.0518 54.7335 4.90959 54.5202C4.76738 54.3068 4.6915 54.0563 4.69147 53.8C4.69278 53.628 4.728 53.4579 4.79515 53.2995C4.8623 53.141 4.96007 52.9974 5.08285 52.8767C5.20562 52.7559 5.35102 52.6605 5.51072 52.5959C5.67042 52.5313 5.8413 52.4987 6.01361 52.5Z" fill="#071013"/>
<path d="M2.29759 5.5681e-10C2.55468 0.00197453 2.80549 0.0798971 3.01829 0.223938C3.2311 0.367979 3.39641 0.571691 3.49343 0.809402C3.59044 1.04711 3.61479 1.30818 3.56342 1.55969C3.51206 1.81121 3.38731 2.04191 3.20481 2.22272C3.02232 2.40353 2.79027 2.52636 2.53797 2.57571C2.28566 2.62507 2.02434 2.59874 1.787 2.50006C1.54965 2.40138 1.34691 2.23476 1.20427 2.02119C1.06163 1.80763 0.985481 1.55669 0.985474 1.3C0.988117 0.954305 1.12752 0.623671 1.37331 0.380157C1.61909 0.136643 1.95132 -1.00721e-05 2.29759 5.5681e-10Z" fill="#071013"/>
<path d="M25.0943 5.5681e-10C25.3514 0.00197453 25.6022 0.0798971 25.815 0.223938C26.0278 0.367979 26.1932 0.571691 26.2902 0.809402C26.3872 1.04711 26.4115 1.30818 26.3602 1.55969C26.3088 1.81121 26.184 2.04191 26.0015 2.22272C25.819 2.40353 25.587 2.52636 25.3347 2.57571C25.0824 2.62507 24.8211 2.59874 24.5838 2.50006C24.3464 2.40138 24.1437 2.23476 24.001 2.02119C23.8584 1.80763 23.7822 1.55669 23.7822 1.3C23.7849 0.954305 23.9243 0.623671 24.1701 0.380157C24.4158 0.136643 24.7481 -1.00721e-05 25.0943 5.5681e-10Z" fill="#071013"/>
<path d="M58.0274 25C58.2845 25.002 58.5353 25.0799 58.7481 25.2239C58.9609 25.368 59.1263 25.5717 59.2233 25.8094C59.3203 26.0471 59.3446 26.3082 59.2933 26.5597C59.2419 26.8112 59.1171 27.0419 58.9346 27.2227C58.7521 27.4035 58.5201 27.5264 58.2678 27.5757C58.0155 27.6251 57.7542 27.5987 57.5169 27.5001C57.2795 27.4014 57.0768 27.2348 56.9341 27.0212C56.7915 26.8076 56.7153 26.5567 56.7153 26.3C56.718 25.9543 56.8574 25.6237 57.1032 25.3802C57.3489 25.1366 57.6812 25 58.0274 25Z" fill="#071013"/>
</g>
<defs>
<clipPath id="clip0_66_46">
<rect width="58.77" height="56.6" fill="white"/>
</clipPath>
</defs>
</svg>
