<svg width="59" height="56" viewBox="0 0 59 56" fill="none" xmlns="http://www.w3.org/2000/svg">
<g clip-path="url(#clip0_66_28)">
<path d="M31.4863 23.2001C32.2373 23.1923 32.9692 22.9627 33.5898 22.5404C34.2105 22.118 34.692 21.5218 34.974 20.8268C35.2559 20.1318 35.3256 19.369 35.1743 18.6345C35.0229 17.9001 34.6573 17.2267 34.1234 16.6993C33.5896 16.1718 32.9113 15.8139 32.1741 15.6705C31.4369 15.5271 30.6737 15.6046 29.9806 15.8934C29.2874 16.1821 28.6953 16.6692 28.2788 17.2932C27.8624 17.9172 27.6401 18.6502 27.6401 19.4001C27.6633 20.4075 28.0773 21.3667 28.7947 22.0755C29.5121 22.7843 30.477 23.1875 31.4863 23.2001Z" fill="#071013"/>
<path d="M20.0378 31.9001H14.9696V34.4001H20.0378V31.9001Z" fill="#071013"/>
<path d="M46.6807 28.2H41.6125V30.7H46.6807V28.2Z" fill="#071013"/>
<path d="M20.0378 28.2H14.9696V30.7H20.0378V28.2Z" fill="#071013"/>
<path d="M46.6807 31.9001H41.6125V34.4001H46.6807V31.9001Z" fill="#071013"/>
<path d="M2.30917 45.7C2.05208 45.702 1.80134 45.7799 1.58853 45.9239C1.37572 46.068 1.21039 46.2717 1.11337 46.5094C1.01635 46.7471 0.991971 47.0082 1.04334 47.2597C1.09471 47.5112 1.21952 47.7419 1.40201 47.9227C1.5845 48.1035 1.81652 48.2263 2.06883 48.2757C2.32113 48.325 2.58242 48.2987 2.81976 48.2001C3.05711 48.1014 3.25988 47.9347 3.40252 47.7212C3.54516 47.5076 3.62128 47.2567 3.62129 47C3.62694 46.8269 3.59678 46.6545 3.53271 46.4935C3.46863 46.3326 3.37202 46.1866 3.24889 46.0646C3.12576 45.9426 2.97876 45.8473 2.81707 45.7845C2.65539 45.7218 2.4825 45.693 2.30917 45.7Z" fill="#071013"/>
<path d="M49.2148 4.4C49.4719 4.39802 49.7227 4.3201 49.9355 4.17606C50.1483 4.03202 50.3136 3.82832 50.4107 3.59061C50.5077 3.3529 50.532 3.09182 50.4807 2.8403C50.4293 2.58879 50.3045 2.35809 50.122 2.17728C49.9395 1.99647 49.7075 1.87367 49.4552 1.82431C49.2029 1.77496 48.9416 1.80125 48.7042 1.89994C48.4669 1.99862 48.2641 2.16526 48.1215 2.37882C47.9788 2.59238 47.9027 2.84332 47.9027 3.10001C47.8985 3.27272 47.9297 3.44444 47.9943 3.60471C48.0589 3.76498 48.1556 3.91045 48.2784 4.03214C48.4012 4.15383 48.5476 4.24921 48.7086 4.31247C48.8696 4.37573 49.0419 4.40549 49.2148 4.4Z" fill="#071013"/>
<path d="M57.4281 2.50015C57.6864 2.49619 57.9401 2.56903 58.1568 2.70944C58.3736 2.84986 58.5436 3.0515 58.6452 3.28867C58.7469 3.52583 58.7755 3.78781 58.7276 4.04129C58.6796 4.29477 58.5572 4.52825 58.3759 4.71207C58.1947 4.89588 57.9627 5.02172 57.7096 5.07352C57.4565 5.12532 57.1936 5.10074 56.9546 5.00296C56.7155 4.90518 56.5109 4.73864 56.3669 4.52445C56.2229 4.31025 56.146 4.0581 56.146 3.80014C56.1485 3.45958 56.2838 3.1334 56.5231 2.89072C56.7624 2.64804 57.087 2.50794 57.4281 2.50015Z" fill="#071013"/>
<path d="M57.4281 48.8001C57.6847 48.804 57.9345 48.8836 58.146 49.0288C58.3574 49.1741 58.5212 49.3784 58.6167 49.6163C58.7122 49.8542 58.7351 50.1149 58.6827 50.3658C58.6302 50.6166 58.5046 50.8463 58.3217 51.0262C58.1388 51.206 57.9068 51.3278 57.6548 51.3764C57.4028 51.4249 57.142 51.3981 56.9053 51.2991C56.6685 51.2002 56.4663 51.0336 56.3241 50.8202C56.1819 50.6069 56.106 50.3563 56.106 50.1001C56.1073 49.928 56.1425 49.758 56.2097 49.5995C56.2768 49.4411 56.3746 49.2974 56.4973 49.1767C56.6201 49.056 56.7655 48.9606 56.9252 48.896C57.0849 48.8314 57.2558 48.7988 57.4281 48.8001Z" fill="#071013"/>
<path d="M44.7577 7.5C45.0148 7.50197 45.2655 7.5799 45.4783 7.72394C45.6911 7.86798 45.8565 8.07168 45.9535 8.30939C46.0505 8.5471 46.0749 8.80818 46.0235 9.05969C45.9721 9.31121 45.8473 9.54191 45.6648 9.72272C45.4823 9.90353 45.2503 10.0263 44.998 10.0757C44.7457 10.125 44.4844 10.0987 44.2471 10.0001C44.0097 9.90138 43.807 9.73474 43.6643 9.52118C43.5217 9.30762 43.4456 9.05668 43.4456 8.79999C43.4482 8.45429 43.5876 8.12364 43.8334 7.88013C44.0792 7.63661 44.4114 7.49999 44.7577 7.5Z" fill="#071013"/>
<path d="M39.6894 3.90005C40.4196 3.90005 41.0116 3.31802 41.0116 2.60005C41.0116 1.88208 40.4196 1.30005 39.6894 1.30005C38.9592 1.30005 38.3673 1.88208 38.3673 2.60005C38.3673 3.31802 38.9592 3.90005 39.6894 3.90005Z" fill="#071013"/>
<path d="M25.8171 3.84552e-05C26.0737 0.00398088 26.3235 0.0835769 26.5349 0.228798C26.7464 0.37402 26.9102 0.578398 27.0057 0.816262C27.1012 1.05413 27.1241 1.31481 27.0716 1.56565C27.0191 1.81649 26.8936 2.0463 26.7107 2.22611C26.5278 2.40593 26.2958 2.52777 26.0438 2.57633C25.7918 2.62489 25.531 2.59802 25.2942 2.49906C25.0575 2.40011 24.8553 2.23345 24.7131 2.02012C24.5708 1.80679 24.495 1.55628 24.4949 1.30003C24.4962 1.12799 24.5315 0.957913 24.5986 0.799477C24.6658 0.641041 24.7635 0.497343 24.8863 0.376625C25.0091 0.255908 25.1545 0.160543 25.3142 0.0959247C25.4739 0.0313061 25.6448 -0.00127979 25.8171 3.84552e-05Z" fill="#071013"/>
<path d="M5.55441 2.50004C5.81105 2.50398 6.06083 2.58358 6.2723 2.7288C6.48378 2.87402 6.64754 3.0784 6.74303 3.31626C6.83852 3.55413 6.86145 3.81481 6.80897 4.06565C6.75648 4.31649 6.63094 4.5463 6.44806 4.72611C6.26519 4.90593 6.03314 5.02777 5.78112 5.07633C5.5291 5.12489 5.26833 5.09802 5.03156 4.99906C4.7948 4.90011 4.59264 4.73345 4.45043 4.52012C4.30821 4.30679 4.23233 4.05628 4.2323 3.80003C4.23361 3.62799 4.26883 3.45791 4.33598 3.29948C4.40314 3.14104 4.50091 2.99734 4.62368 2.87663C4.74645 2.75591 4.89182 2.66054 5.05152 2.59592C5.21122 2.53131 5.3821 2.49872 5.55441 2.50004Z" fill="#071013"/>
<path d="M4.23231 31.3C4.48941 31.302 4.74015 31.3799 4.95296 31.524C5.16576 31.668 5.3311 31.8717 5.42812 32.1094C5.52514 32.3471 5.54948 32.6082 5.49812 32.8597C5.44675 33.1113 5.32197 33.342 5.13947 33.5228C4.95698 33.7036 4.72496 33.8264 4.47266 33.8757C4.22035 33.9251 3.95904 33.8988 3.72169 33.8001C3.48435 33.7014 3.28157 33.5348 3.13893 33.3212C2.99629 33.1077 2.92017 32.8567 2.92017 32.6C2.92281 32.2543 3.06225 31.9237 3.30803 31.6802C3.55381 31.4367 3.88604 31.3 4.23231 31.3Z" fill="#071013"/>
<path d="M58.5399 9.40002H48.6138C48.4545 9.40002 48.3016 9.46328 48.1889 9.57581C48.0762 9.68833 48.0129 9.84093 48.0129 10.0001C48.0129 10.1592 48.0762 10.3118 48.1889 10.4243C48.3016 10.5368 48.4545 10.6 48.6138 10.6H57.9389V25.0001L32.1974 5.80005C32.1508 5.75318 32.0954 5.716 32.0344 5.69061C31.9733 5.66523 31.9079 5.65216 31.8418 5.65216C31.7757 5.65216 31.7102 5.66523 31.6492 5.69061C31.5882 5.716 31.5328 5.75318 31.4862 5.80005L3.5211 25.2001V10.7001H11.7344C11.8899 10.6885 12.0361 10.6216 12.1464 10.5115C12.2567 10.4014 12.3238 10.2553 12.3353 10.1V5.00006H16.1915V10.1C16.2031 10.2553 16.2701 10.4014 16.3804 10.5115C16.4907 10.6216 16.637 10.6885 16.7925 10.7001H19.2265C19.3858 10.7001 19.5387 10.6368 19.6514 10.5243C19.7641 10.4118 19.8274 10.2592 19.8274 10.1C19.8274 9.94091 19.7641 9.7883 19.6514 9.67578C19.5387 9.56326 19.3858 9.50006 19.2265 9.50006H17.4035V4.40002C17.3917 4.24312 17.3232 4.09587 17.2108 3.98553C17.0985 3.8752 16.9498 3.80929 16.7925 3.80005H11.6242C11.4686 3.8116 11.3224 3.87853 11.2121 3.98865C11.1018 4.09876 11.0348 4.24472 11.0232 4.40002V9.50006H2.80996C2.65441 9.51161 2.50818 9.57854 2.39789 9.68866C2.28759 9.79878 2.22055 9.94474 2.20898 10.1V26.4C2.21625 26.515 2.24659 26.6275 2.29821 26.7305C2.34983 26.8336 2.42169 26.9253 2.50949 27.0001C2.60356 27.05 2.70845 27.076 2.81497 27.076C2.9215 27.076 3.02639 27.05 3.12046 27.0001L8.58927 23.3V50.8H18.0846C18.244 50.8 18.3968 50.8632 18.5095 50.9758C18.6222 51.0883 18.6856 51.2409 18.6856 51.4C18.6856 51.5592 18.6222 51.7118 18.5095 51.8243C18.3968 51.9369 18.244 52.0001 18.0846 52.0001H8.55922V54.5001H4.20222C4.04283 54.5001 3.88995 54.5633 3.77725 54.6758C3.66455 54.7883 3.60124 54.9409 3.60124 55.1C3.60124 55.2592 3.66455 55.4118 3.77725 55.5243C3.88995 55.6368 4.04283 55.7001 4.20222 55.7001H57.398C57.5574 55.7001 57.7102 55.6368 57.8229 55.5243C57.9356 55.4118 57.999 55.2592 57.999 55.1C57.999 54.9409 57.9356 54.7883 57.8229 54.6758C57.7102 54.5633 57.5574 54.5001 57.398 54.5001H53.041V52.0001H45.9495C45.7902 52.0001 45.6373 51.9369 45.5246 51.8243C45.4119 51.7118 45.3486 51.5592 45.3486 51.4C45.3486 51.2409 45.4119 51.0883 45.5246 50.9758C45.6373 50.8632 45.7902 50.8 45.9495 50.8H53.041V23.1L58.1091 26.9C58.2093 27 58.3095 27.0001 58.5098 27.0001C58.5657 27.0061 58.6222 27.0003 58.6757 26.983C58.7292 26.9658 58.7785 26.9375 58.8203 26.9C58.9246 26.8413 59.0088 26.7528 59.0624 26.6459C59.1159 26.539 59.1362 26.4186 59.1208 26.3V10.1C59.141 10.0143 59.141 9.92504 59.1209 9.83929C59.1007 9.75354 59.0609 9.67366 59.0047 9.60583C58.9484 9.53801 58.8771 9.48413 58.7965 9.44843C58.7158 9.41272 58.628 9.39614 58.5399 9.40002ZM31.4962 14.4C32.4841 14.4119 33.4464 14.7152 34.262 15.2717C35.0776 15.8283 35.7102 16.6132 36.08 17.5278C36.4499 18.4424 36.5405 19.4458 36.3405 20.4117C36.1406 21.3777 35.6589 22.263 34.9562 22.9562C34.2535 23.6495 33.3611 24.1198 32.3913 24.3079C31.4215 24.496 30.4176 24.3936 29.506 24.0134C28.5944 23.6333 27.8158 22.9925 27.2681 22.1716C26.7204 21.3507 26.4281 20.3864 26.428 19.4C26.428 18.7392 26.5592 18.0849 26.814 17.475C27.0688 16.8651 27.4422 16.3117 27.9126 15.8467C28.3829 15.3818 28.9409 15.0145 29.5543 14.7662C30.1677 14.5179 30.8243 14.3934 31.4862 14.4H31.4962ZM14.3786 35.7001H13.0765C12.9171 35.7001 12.7643 35.6368 12.6516 35.5243C12.5389 35.4118 12.4755 35.2592 12.4755 35.1C12.4755 34.9409 12.5389 34.7883 12.6516 34.6758C12.7643 34.5633 12.9171 34.5001 13.0765 34.5001H13.6875V27.6C13.6993 27.4431 13.7678 27.2959 13.8802 27.1855C13.9925 27.0752 14.1412 27.0093 14.2985 27.0001H20.6788C20.8343 27.0116 20.9806 27.0785 21.0908 27.1887C21.2011 27.2988 21.2682 27.4447 21.2798 27.6V34.5001H21.8907C22.0501 34.5001 22.203 34.5633 22.3157 34.6758C22.4284 34.7883 22.4917 34.9409 22.4917 35.1C22.4917 35.2592 22.4284 35.4118 22.3157 35.5243C22.203 35.6368 22.0501 35.7001 21.8907 35.7001H14.3987H14.3786ZM32.4077 54.4L35.8532 51.9C37.053 51.0539 38.0049 49.9036 38.6106 48.5676C39.2163 47.2316 39.4538 45.7584 39.2988 44.3L38.8982 39.8C35.8508 39.4818 33.0134 38.1008 30.8852 35.9C28.752 38.0938 25.9173 39.4735 22.8723 39.8L22.4717 44.3C22.3373 45.7563 22.5842 47.2224 23.1882 48.5547C23.7922 49.8871 24.7326 51.0398 25.9172 51.9L29.3628 54.4H27.2294L25.2261 52.9C23.8736 51.9114 22.799 50.5916 22.106 49.0677C21.413 47.5438 21.125 45.8674 21.2697 44.2001L21.7806 39.2001C21.7924 39.0432 21.8609 38.8959 21.9732 38.7855C22.0856 38.6752 22.2342 38.6093 22.3915 38.6C27.1492 38.5 30.4946 34.6 30.4946 34.6L30.5948 34.5001H30.6949C30.7951 34.5001 30.7951 34.4 30.9053 34.4H31.1056C31.2058 34.4 31.3059 34.5 31.4061 34.6C31.5062 34.7 34.7515 38.5 39.5092 38.6C39.6665 38.6093 39.8151 38.6752 39.9275 38.7855C40.0398 38.8959 40.1083 39.0432 40.1201 39.2001L40.631 44.2001C40.7757 45.8674 40.4877 47.5438 39.7947 49.0677C39.1017 50.5916 38.0271 51.9114 36.6746 52.9L34.6713 54.4H32.4077ZM28.4012 48.8C28.4682 48.8517 28.524 48.9163 28.5655 48.99C28.6069 49.0637 28.6331 49.1449 28.6424 49.2289C28.6517 49.3128 28.6441 49.3978 28.6198 49.4788C28.5956 49.5597 28.5553 49.635 28.5014 49.7001C28.4528 49.7927 28.3792 49.8699 28.2889 49.9229C28.1986 49.9759 28.0953 50.0027 27.9906 50.0001C27.8494 50.015 27.7074 49.9796 27.5899 49.9C26.8246 49.3462 26.2163 48.6036 25.8248 47.7446C25.4333 46.8857 25.2719 45.94 25.3563 45.0001L25.5566 42.3C25.5768 42.1286 25.6614 41.9712 25.7935 41.8598C25.9256 41.7484 26.0951 41.6913 26.2678 41.7001C26.4405 41.7154 26.6005 41.7968 26.7144 41.9272C26.8283 42.0577 26.8872 42.2271 26.8788 42.4L26.6784 45.1C26.6213 45.8076 26.7448 46.5182 27.0373 47.1652C27.3298 47.8123 27.7819 48.3747 28.3512 48.8H28.4012ZM41.0617 51.3C41.0577 51.0382 41.1318 50.781 41.2747 50.5613C41.4175 50.3417 41.6226 50.1693 41.8638 50.0663C42.105 49.9634 42.3714 49.9344 42.6292 49.983C42.887 50.0317 43.1244 50.1558 43.3114 50.3396C43.4983 50.5234 43.6262 50.7585 43.6789 51.0151C43.7315 51.2717 43.7065 51.5381 43.6071 51.7805C43.5076 52.0228 43.3382 52.2302 43.1204 52.3761C42.9025 52.522 42.6461 52.6 42.3838 52.6C42.206 52.6141 42.0271 52.5907 41.859 52.5313C41.6908 52.4719 41.537 52.3779 41.4076 52.2553C41.2782 52.1327 41.176 51.9843 41.1078 51.8197C41.0396 51.6551 41.0068 51.4781 41.0116 51.3H41.0617ZM48.6639 35.7001H39.7495C39.5902 35.7001 39.4373 35.6368 39.3246 35.5243C39.2119 35.4118 39.1486 35.2592 39.1486 35.1C39.1486 34.9409 39.2119 34.7883 39.3246 34.6758C39.4373 34.5633 39.5902 34.5001 39.7495 34.5001H40.3505V27.6C40.3624 27.4431 40.4308 27.2959 40.5432 27.1855C40.6555 27.0752 40.8042 27.0093 40.9615 27.0001H47.3418C47.4991 27.0093 47.6478 27.0752 47.7601 27.1855C47.8725 27.2959 47.9409 27.4431 47.9528 27.6V34.5001H48.5638C48.7193 34.5116 48.8655 34.5785 48.9758 34.6887C49.0861 34.7988 49.1532 34.9447 49.1647 35.1C49.1702 35.176 49.1601 35.2524 49.135 35.3243C49.1098 35.3963 49.0703 35.4623 49.0187 35.5185C48.9672 35.5747 48.9047 35.6197 48.835 35.6509C48.7654 35.6822 48.6902 35.6989 48.6138 35.7001H48.6639Z" fill="#071013"/>
<path d="M58.0391 46.2999V31.2999C58.0391 31.1381 57.9747 30.983 57.8601 30.8686C57.7456 30.7542 57.5902 30.6899 57.4281 30.6899C57.2661 30.6899 57.1107 30.7542 56.9961 30.8686C56.8815 30.983 56.8171 31.1381 56.8171 31.2999V46.2999C56.8171 46.4617 56.8815 46.6169 56.9961 46.7313C57.1107 46.8457 57.2661 46.9099 57.4281 46.9099C57.5902 46.9099 57.7456 46.8457 57.8601 46.7313C57.9747 46.6169 58.0391 46.4617 58.0391 46.2999Z" fill="#071013"/>
</g>
<defs>
<clipPath id="clip0_66_28">
<rect width="58.08" height="55.7" fill="white"/>
</clipPath>
</defs>
</svg>
