<svg width="56" height="55" viewBox="0 0 56 55" fill="none" xmlns="http://www.w3.org/2000/svg">
<g clip-path="url(#clip0_75_84)">
<path d="M19.9758 20.4399H14.9794V26.6608H19.9758V20.4399Z" fill="#071013"/>
<path d="M27.4704 22.9084V26.6606H32.7631V22.9084C32.7453 22.228 32.4651 21.5808 31.9811 21.1023C31.497 20.6238 30.8467 20.351 30.1661 20.3411C29.8169 20.3178 29.4668 20.3672 29.1377 20.4863C28.8087 20.6054 28.5079 20.7914 28.2545 21.0328C28.0011 21.2741 27.8006 21.5654 27.6656 21.8883C27.5306 22.2111 27.4642 22.5585 27.4704 22.9084Z" fill="#071013"/>
<path d="M38.6284 26.6609V11.8494H21.1706V26.6609H26.167V22.9086C26.1748 21.8811 26.5898 20.8987 27.321 20.1767C28.0522 19.4548 29.0398 19.0524 30.0673 19.0576C30.5778 19.047 31.0852 19.1391 31.5595 19.3283C32.0337 19.5176 32.465 19.8002 32.8279 20.1594C33.1908 20.5186 33.4778 20.9471 33.6719 21.4193C33.866 21.8916 33.9632 22.398 33.9578 22.9086V26.6609H38.6284Z" fill="#071013"/>
<path d="M20.5781 10.5656H39.3591H40.7514L29.9686 4.54224L19.176 10.5656H20.5781Z" fill="#071013"/>
<path d="M44.9479 20.4399H39.9515V26.6608H44.9479V20.4399Z" fill="#071013"/>
<path d="M6.69482 51.0504L15.483 55.0001L16.9839 51.6428L8.29446 47.6931L6.69482 51.0504Z" fill="#071013"/>
<path d="M47.4462 35.2515C47.0271 35.2556 46.6147 35.357 46.2415 35.5477L41.0476 37.8188C39.0412 38.7305 36.8628 39.2018 34.6589 39.2012C32.4949 39.2252 30.3506 38.7876 28.369 37.9175L27.3815 37.5226C25.6869 36.745 23.8448 36.3409 21.9803 36.3377C19.4128 36.3221 16.8958 37.0504 14.7334 38.4348C12.571 39.8191 10.8559 41.8001 9.79536 44.1384L8.80792 46.5082L17.4973 50.458L18.1984 48.9768C18.5879 48.1349 19.2066 47.4197 19.9838 46.9133C20.7609 46.4068 21.665 46.1295 22.5925 46.1132C23.2713 46.1037 23.9444 46.2384 24.5674 46.5082C26.3659 47.2874 28.3048 47.6907 30.2648 47.6932C32.2698 47.7154 34.253 47.2762 36.0611 46.4095L48.5027 40.7811C48.8379 40.6449 49.143 40.444 49.4005 40.1898C49.658 39.9357 49.863 39.6333 50.0036 39.3C50.1929 38.8566 50.2737 38.3745 50.2394 37.8937C50.205 37.4128 50.0565 36.9471 49.8061 36.5352C49.5347 36.1574 49.1815 35.8458 48.7729 35.6235C48.3643 35.4012 47.9108 35.274 47.4462 35.2515Z" fill="#071013"/>
<path d="M54.3384 48.2856C55.0583 48.2856 55.6419 47.7109 55.6419 47.0019C55.6419 46.293 55.0583 45.7183 54.3384 45.7183C53.6186 45.7183 53.035 46.293 53.035 47.0019C53.035 47.7109 53.6186 48.2856 54.3384 48.2856Z" fill="#071013"/>
<path d="M34.3627 51.8404C34.6157 51.8443 34.8619 51.9228 35.0704 52.0662C35.2789 52.2096 35.4403 52.4114 35.5345 52.6463C35.6286 52.8811 35.6512 53.1386 35.5995 53.3863C35.5477 53.634 35.424 53.8609 35.2437 54.0385C35.0634 54.216 34.8346 54.3363 34.5862 54.3843C34.3377 54.4322 34.0807 54.4056 33.8472 54.3079C33.6138 54.2102 33.4145 54.0457 33.2743 53.8351C33.1341 53.6244 33.0593 53.3771 33.0593 53.124C33.0606 52.9541 33.0953 52.7862 33.1615 52.6298C33.2277 52.4733 33.3241 52.3314 33.4451 52.2122C33.5662 52.093 33.7095 51.9989 33.8669 51.9351C34.0244 51.8712 34.1928 51.8391 34.3627 51.8404Z" fill="#071013"/>
<path d="M54.3384 32.1904C55.0583 32.1904 55.6419 31.6157 55.6419 30.9067C55.6419 30.1978 55.0583 29.623 54.3384 29.623C53.6186 29.623 53.035 30.1978 53.035 30.9067C53.035 31.6157 53.6186 32.1904 54.3384 32.1904Z" fill="#071013"/>
<path d="M50.5368 14.8115C50.7903 14.8135 51.0375 14.8904 51.2473 15.0326C51.4571 15.1749 51.62 15.376 51.7157 15.6107C51.8113 15.8455 51.8354 16.1033 51.7847 16.3516C51.7341 16.6 51.611 16.8278 51.4311 17.0063C51.2512 17.1848 51.0225 17.3061 50.7738 17.3548C50.525 17.4036 50.2674 17.3776 50.0335 17.2802C49.7995 17.1827 49.5996 17.0182 49.459 16.8073C49.3183 16.5964 49.2433 16.3486 49.2433 16.0952C49.2459 15.7538 49.3833 15.4273 49.6256 15.1869C49.8679 14.9464 50.1955 14.8115 50.5368 14.8115Z" fill="#071013"/>
<path d="M45.5404 3.79719e-05C45.7934 0.00393085 46.0396 0.0824663 46.2481 0.225863C46.4566 0.369259 46.618 0.571068 46.7122 0.805943C46.8063 1.04082 46.8289 1.29828 46.7772 1.54598C46.7255 1.79367 46.6017 2.02058 46.4214 2.19814C46.2411 2.37569 46.0124 2.496 45.7639 2.54395C45.5155 2.59191 45.2584 2.56531 45.025 2.4676C44.7916 2.36988 44.5922 2.20538 44.452 1.99473C44.3118 1.78408 44.237 1.53673 44.237 1.28369C44.2383 1.11382 44.273 0.945875 44.3392 0.78943C44.4054 0.632985 44.5018 0.491092 44.6228 0.371892C44.7439 0.252692 44.8872 0.158526 45.0447 0.0947192C45.2021 0.0309126 45.3705 -0.0012637 45.5404 3.79719e-05Z" fill="#071013"/>
<path d="M19.3734 2.56738C19.6074 2.56933 19.8355 2.64049 20.029 2.77187C20.2226 2.90325 20.3729 3.08899 20.4611 3.30567C20.5493 3.52235 20.5713 3.76027 20.5245 3.98947C20.4777 4.21867 20.364 4.42887 20.1979 4.5936C20.0318 4.75832 19.8207 4.8702 19.5911 4.91513C19.3615 4.96005 19.1238 4.93603 18.9079 4.84606C18.6919 4.75609 18.5075 4.60424 18.3777 4.4096C18.2479 4.21496 18.1787 3.98625 18.1786 3.75231C18.1813 3.43715 18.3083 3.13574 18.5321 2.9138C18.7558 2.69187 19.0583 2.56737 19.3734 2.56738Z" fill="#071013"/>
<path d="M8.08711 19.7488C8.34057 19.7507 8.58776 19.8277 8.79755 19.9699C9.00735 20.1121 9.17034 20.3133 9.26599 20.548C9.36163 20.7827 9.38566 21.0405 9.33502 21.2889C9.28438 21.5372 9.16134 21.765 8.98143 21.9436C8.80152 22.1221 8.57279 22.2434 8.32406 22.2921C8.07532 22.3408 7.81774 22.3149 7.58375 22.2174C7.34977 22.12 7.14987 21.9554 7.00925 21.7446C6.86863 21.5337 6.79359 21.2859 6.79358 21.0324C6.79618 20.6911 6.93362 20.3646 7.17592 20.1241C7.41822 19.8837 7.74575 19.7488 8.08711 19.7488Z" fill="#071013"/>
<path d="M9.39052 34.5601C9.64352 34.564 9.88973 34.6425 10.0982 34.7859C10.3067 34.9293 10.4681 35.1311 10.5623 35.366C10.6564 35.6009 10.679 35.8583 10.6273 36.106C10.5756 36.3537 10.4518 36.5806 10.2715 36.7582C10.0912 36.9357 9.86247 37.0561 9.61402 37.104C9.36557 37.152 9.10848 37.1254 8.87507 37.0277C8.64166 36.9299 8.44233 36.7654 8.30213 36.5548C8.16194 36.3441 8.08713 36.0968 8.0871 35.8437C8.08839 35.6739 8.12311 35.5059 8.18931 35.3495C8.25551 35.193 8.3519 35.0512 8.47293 34.932C8.59397 34.8128 8.73728 34.7186 8.89472 34.6548C9.05216 34.591 9.22064 34.5588 9.39052 34.5601Z" fill="#071013"/>
<path d="M1.89586 44.4345C2.14886 44.4384 2.3951 44.5169 2.60358 44.6603C2.81207 44.8037 2.97351 45.0055 3.06765 45.2404C3.16179 45.4753 3.18439 45.7327 3.13265 45.9804C3.08091 46.2281 2.95714 46.455 2.77686 46.6326C2.59657 46.8101 2.36781 46.9304 2.11936 46.9784C1.87091 47.0263 1.61385 46.9997 1.38044 46.902C1.14703 46.8043 0.947702 46.6398 0.807505 46.4292C0.667308 46.2185 0.592498 45.9712 0.592468 45.7181C0.592448 45.5479 0.62629 45.3793 0.692031 45.2223C0.757773 45.0653 0.854083 44.9228 0.975382 44.8034C1.09668 44.6839 1.24053 44.5898 1.39855 44.5264C1.55658 44.4631 1.72563 44.4319 1.89586 44.4345Z" fill="#071013"/>
<path d="M45.5404 47.5942C44.9363 47.6001 44.3474 47.7846 43.8479 48.1245C43.3485 48.4644 42.9607 48.9444 42.7336 49.5043C42.5064 50.0641 42.45 50.6786 42.5714 51.2704C42.6929 51.8622 42.9867 52.4049 43.416 52.83C43.8452 53.2552 44.3907 53.5438 44.9836 53.6595C45.5766 53.7752 46.1906 53.7129 46.7482 53.4804C47.3058 53.2479 47.7821 52.8556 48.1172 52.3528C48.4522 51.8501 48.631 51.2595 48.6311 50.6553C48.6207 49.8416 48.2908 49.0645 47.7126 48.4919C47.1344 47.9192 46.3542 47.5968 45.5404 47.5942Z" fill="#071013"/>
<path d="M2.49822 34.0665C2.01129 34.0723 1.53697 34.222 1.13493 34.4968C0.732888 34.7716 0.421078 35.1591 0.238771 35.6107C0.0564644 36.0622 0.0118003 36.5577 0.11037 37.0346C0.20894 37.5115 0.446338 37.9485 0.792726 38.2908C1.13911 38.6331 1.579 38.8653 2.05703 38.9581C2.53506 39.051 3.02989 39.0004 3.47924 38.8127C3.92859 38.625 4.31239 38.3087 4.58235 37.9034C4.85232 37.4981 4.99639 37.022 4.99643 36.5351C4.99778 36.208 4.93386 35.8839 4.80842 35.5819C4.68298 35.2798 4.49856 35.0058 4.26592 34.776C4.03327 34.5461 3.75709 34.3649 3.45356 34.2431C3.15003 34.1212 2.82525 34.0612 2.49822 34.0665Z" fill="#071013"/>
<path d="M54.9407 8.09688C54.9466 7.60156 54.8051 7.11572 54.5342 6.70101C54.2633 6.28631 53.8752 5.96151 53.4193 5.76788C52.9633 5.57425 52.4601 5.52051 51.9736 5.61353C51.487 5.70656 51.0392 5.94211 50.6868 6.29028C50.3345 6.63846 50.0936 7.08354 49.9947 7.56893C49.8959 8.05433 49.9436 8.55812 50.1318 9.01633C50.32 9.47455 50.6401 9.86648 51.0516 10.1423C51.463 10.4182 51.9472 10.5654 52.4425 10.5655C52.7696 10.5707 53.0943 10.5107 53.3979 10.3889C53.7014 10.2671 53.9776 10.0859 54.2102 9.85599C54.4429 9.6261 54.6273 9.35214 54.7528 9.05008C54.8782 8.74803 54.9421 8.42394 54.9407 8.09688Z" fill="#071013"/>
<path d="M6.8923 11.8492C7.49598 11.8414 8.08388 11.6552 8.58204 11.3142C9.0802 10.9731 9.46639 10.4924 9.69203 9.93238C9.91766 9.37241 9.97267 8.75823 9.85014 8.16707C9.72761 7.57591 9.433 7.0342 9.00337 6.61004C8.57375 6.18589 8.0283 5.89823 7.43562 5.78329C6.84294 5.66834 6.22951 5.73123 5.67248 5.96403C5.11544 6.19683 4.63969 6.58915 4.30505 7.09165C3.97041 7.59414 3.79183 8.18435 3.79178 8.78807C3.7877 9.19454 3.86541 9.59767 4.02029 9.97349C4.17516 10.3493 4.40404 10.6902 4.6933 10.9757C4.98256 11.2613 5.32631 11.4858 5.70409 11.6359C6.08186 11.7859 6.48593 11.8584 6.8923 11.8492Z" fill="#071013"/>
</g>
<defs>
<clipPath id="clip0_75_84">
<rect width="55.6418" height="55" fill="white"/>
</clipPath>
</defs>
</svg>
