<svg width="56" height="55" viewBox="0 0 56 55" fill="none" xmlns="http://www.w3.org/2000/svg">
<path d="M6.44154 5.54206C6.66943 5.54326 6.89532 5.49956 7.10631 5.41345C7.31731 5.32735 7.50928 5.20052 7.67127 5.04023C7.83325 4.87993 7.96208 4.68931 8.05038 4.47922C8.13869 4.26914 8.18475 4.04371 8.18594 3.81583C8.19233 3.58585 8.15143 3.35702 8.06579 3.14349C7.98015 2.92996 7.85158 2.73628 7.68806 2.57446C7.52453 2.41263 7.32952 2.2861 7.1151 2.2027C6.90069 2.1193 6.67144 2.08081 6.44154 2.08961C5.98372 2.08961 5.54465 2.27147 5.22092 2.5952C4.89719 2.91893 4.71532 3.358 4.71532 3.81583C4.71532 4.27365 4.89719 4.71273 5.22092 5.03646C5.54465 5.36019 5.98372 5.54206 6.44154 5.54206Z" fill="#071013"/>
<path d="M45.4997 5.54216C45.7276 5.54336 45.9534 5.49966 46.1644 5.41355C46.3754 5.32745 46.5674 5.20062 46.7294 5.04033C46.8914 4.88003 47.0202 4.68941 47.1085 4.47932C47.1968 4.26924 47.2429 4.04381 47.2441 3.81593C47.2441 3.35329 47.0603 2.9096 46.7331 2.58246C46.406 2.25532 45.9623 2.07153 45.4997 2.07153C45.037 2.07153 44.5933 2.25532 44.2662 2.58246C43.9391 2.9096 43.7553 3.35329 43.7553 3.81593C43.7565 4.04381 43.8025 4.26924 43.8908 4.47932C43.9791 4.68941 44.108 4.88003 44.27 5.04033C44.4319 5.20062 44.6239 5.32745 44.8349 5.41355C45.0459 5.49966 45.2718 5.54336 45.4997 5.54216Z" fill="#071013"/>
<path d="M2.39855 38.4313C2.40216 38.1934 2.33489 37.9597 2.20533 37.7602C2.07576 37.5606 1.88975 37.404 1.67096 37.3105C1.45216 37.2169 1.21046 37.1905 0.976644 37.2347C0.742823 37.2789 0.527445 37.3917 0.357901 37.5587C0.188357 37.7257 0.0723119 37.9393 0.0245457 38.1724C-0.0232204 38.4055 -0.000550342 38.6476 0.0896613 38.8678C0.179873 39.088 0.333555 39.2764 0.531149 39.409C0.728743 39.5416 0.961312 39.6124 1.19927 39.6124C1.3569 39.6187 1.51414 39.5925 1.66127 39.5356C1.80839 39.4787 1.94229 39.3923 2.05469 39.2816C2.16708 39.1709 2.25559 39.0383 2.31474 38.8921C2.37388 38.7458 2.4024 38.589 2.39855 38.4313Z" fill="#071013"/>
<path d="M35.2968 42.3381C33.8876 42.3463 32.5363 42.8998 31.5263 43.8827L31.0721 44.3369C30.9442 44.4508 30.7799 44.5153 30.6087 44.5186C30.427 44.5186 30.3361 44.4278 30.1454 44.3369L22.877 37.1595V36.7961C22.877 36.6143 22.9679 36.5235 23.0678 36.3418C23.1678 36.1601 23.3404 36.0692 23.5221 35.9784C24.0124 35.508 24.4034 34.9439 24.6718 34.3197C24.9402 33.6955 25.0807 33.0237 25.0848 32.3442C25.0689 30.9908 24.5434 29.6931 23.613 28.7101C23.1332 28.2398 22.565 27.8693 21.9413 27.6198C21.3175 27.3703 20.6505 27.2468 19.9788 27.2564C18.5683 27.2578 17.2145 27.8123 16.2084 28.8009C14.464 30.5271 15.0999 33.3436 16.0267 35.4332C17.4894 39.0674 20.8964 43.2467 24.8486 46.79C28.9824 50.3333 33.1163 52.4229 36.06 52.4229C36.5984 52.4456 37.136 52.3609 37.6414 52.1737C38.1468 51.9865 38.6098 51.7006 39.0036 51.3327C39.494 50.8623 39.8849 50.2982 40.1534 49.674C40.4218 49.0498 40.5622 48.378 40.5663 47.6985C40.5504 46.3451 40.0249 45.0474 39.0945 44.0644C38.6272 43.5152 38.0446 43.0759 37.3882 42.7775C36.7318 42.4792 36.0177 42.3291 35.2968 42.3381Z" fill="#071013"/>
<path d="M47.2441 16.8989H6.99577V46.4265H22.8952C19.5537 43.411 16.8372 39.7684 14.9001 35.7057C13.4282 32.2532 13.619 29.5276 15.3634 27.8014C16.5857 26.5862 18.2371 25.9008 19.9606 25.8935C21.6553 25.8762 23.2881 26.5293 24.5033 27.7105C25.0839 28.2968 25.5432 28.9917 25.855 29.7556C26.1668 30.5195 26.3249 31.3373 26.3204 32.1624C26.334 32.9995 26.1684 33.8299 25.8346 34.5977C25.5009 35.3656 25.0067 36.0532 24.3852 36.6142L24.2944 36.7051L30.7268 43.0649L30.8177 42.974C32.0421 41.7621 33.6921 41.0773 35.4149 41.0661C37.1088 41.0527 38.7402 41.7053 39.9576 42.8832C40.888 43.785 41.5002 44.9648 41.702 46.2448H47.3985L47.3077 16.8989H47.2441ZM9.28529 21.9867C9.28529 21.8398 9.34368 21.6988 9.44761 21.5949C9.55155 21.4909 9.69251 21.4325 9.8395 21.4325C9.98649 21.4325 10.1275 21.4909 10.2314 21.5949C10.3353 21.6988 10.3937 21.8398 10.3937 21.9867V35.6148C10.3937 35.7618 10.3353 35.9028 10.2314 36.0067C10.1275 36.1107 9.98649 36.169 9.8395 36.169C9.69251 36.169 9.55155 36.1107 9.44761 36.0067C9.34368 35.9028 9.28529 35.7618 9.28529 35.6148V21.9867ZM9.93035 40.1575C9.69714 40.1557 9.46969 40.0849 9.27665 39.9541C9.08362 39.8232 8.93366 39.6381 8.84566 39.4222C8.75766 39.2062 8.73556 38.969 8.78215 38.7405C8.82875 38.512 8.94194 38.3024 9.10748 38.1381C9.27302 37.9738 9.48347 37.8623 9.71233 37.8174C9.94119 37.7726 10.1782 37.7965 10.3935 37.8861C10.6088 37.9758 10.7927 38.1272 10.9221 38.3212C11.0515 38.5152 11.1205 38.7432 11.1205 38.9764C11.1135 39.289 10.9856 39.5868 10.7636 39.807C10.5417 40.0273 10.243 40.1529 9.93035 40.1575ZM13.8825 24.2581C13.8653 24.3917 13.8 24.5145 13.6988 24.6035C13.5977 24.6924 13.4676 24.7415 13.3328 24.7415C13.1981 24.7415 13.068 24.6924 12.9668 24.6035C12.8657 24.5145 12.8004 24.3917 12.7832 24.2581V19.7154C12.8004 19.5818 12.8657 19.459 12.9668 19.37C13.068 19.2811 13.1981 19.232 13.3328 19.232C13.4676 19.232 13.5977 19.2811 13.6988 19.37C13.8 19.459 13.8653 19.5818 13.8825 19.7154V24.2581ZM35.5693 35.3423C35.4692 35.4379 35.3426 35.5012 35.2059 35.524C35.0385 35.5039 34.879 35.4413 34.7426 35.3423C34.6541 35.2243 34.6063 35.0809 34.6063 34.9334C34.6063 34.786 34.6541 34.6425 34.7426 34.5246C35.049 34.1896 35.219 33.7521 35.219 33.2981C35.219 32.8441 35.049 32.4065 34.7426 32.0715C34.5886 31.9146 34.4026 31.7927 34.1971 31.7143C33.9917 31.6359 33.7718 31.6028 33.5524 31.6173C33.1107 31.6179 32.6844 31.7794 32.3531 32.0715C32.2338 32.1608 32.0887 32.209 31.9397 32.209C31.7907 32.209 31.6457 32.1608 31.5263 32.0715C31.4379 31.9536 31.3901 31.8101 31.3901 31.6627C31.3901 31.5153 31.4379 31.3718 31.5263 31.2538C32.0681 30.7258 32.7959 30.432 33.5524 30.4362C34.3065 30.4305 35.032 30.7246 35.5693 31.2538C35.8333 31.5152 36.0424 31.8266 36.1844 32.1698C36.3263 32.5131 36.3983 32.8812 36.3961 33.2526C36.376 34.025 36.0831 34.7652 35.5693 35.3423ZM37.9588 37.7953C37.8586 37.891 37.732 37.9543 37.5954 37.977C37.4565 37.9529 37.3274 37.8899 37.2229 37.7953C37.1344 37.6774 37.0866 37.5339 37.0866 37.3865C37.0866 37.2391 37.1344 37.0956 37.2229 36.9776C37.7042 36.5027 38.0863 35.9368 38.3471 35.313C38.6079 34.6891 38.7422 34.0197 38.7422 33.3435C38.7422 32.6673 38.6079 31.9979 38.3471 31.374C38.0863 30.7502 37.7042 30.1843 37.2229 29.7093C36.2413 28.7477 34.922 28.2091 33.5478 28.2091C32.1737 28.2091 30.8543 28.7477 29.8728 29.7093C29.7534 29.7985 29.6084 29.8468 29.4594 29.8468C29.3104 29.8468 29.1654 29.7985 29.046 29.7093C28.9576 29.5914 28.9097 29.4479 28.9097 29.3005C28.9097 29.1531 28.9576 29.0096 29.046 28.8916C30.2267 27.7097 31.8286 27.0453 33.4992 27.0444C35.1698 27.0436 36.7724 27.7064 37.9543 28.8871C39.1362 30.0678 39.8006 31.6697 39.8015 33.3403C39.8023 35.0109 39.1395 36.6134 37.9588 37.7953ZM41.4567 24.2581C41.4459 24.4006 41.3838 24.5345 41.2819 24.6347C41.18 24.7349 41.0452 24.7948 40.9025 24.8032C40.8295 24.807 40.7564 24.7956 40.6881 24.7697C40.6197 24.7438 40.5575 24.7039 40.5054 24.6527C40.4532 24.6014 40.4123 24.5398 40.3853 24.4719C40.3583 24.404 40.3456 24.3312 40.3483 24.2581V19.7154C40.3483 19.5684 40.4067 19.4274 40.5106 19.3235C40.6145 19.2196 40.7555 19.1612 40.9025 19.1612C41.0495 19.1612 41.1904 19.2196 41.2943 19.3235C41.3983 19.4274 41.4567 19.5684 41.4567 19.7154V24.2581ZM43.7553 21.9867C43.7725 21.8531 43.8378 21.7304 43.939 21.6414C44.0401 21.5524 44.1702 21.5033 44.305 21.5033C44.4397 21.5033 44.5698 21.5524 44.6709 21.6414C44.7721 21.7304 44.8374 21.8531 44.8546 21.9867V35.6148C44.8374 35.7485 44.7721 35.8712 44.6709 35.9602C44.5698 36.0492 44.4397 36.0982 44.305 36.0982C44.1702 36.0982 44.0401 36.0492 43.939 35.9602C43.8378 35.8712 43.7725 35.7485 43.7553 35.6148V21.9867ZM44.3913 40.1575C44.1585 40.154 43.9319 40.0817 43.7401 39.9497C43.5483 39.8178 43.3997 39.6321 43.3131 39.416C43.2265 39.1999 43.2057 38.963 43.2533 38.7351C43.3009 38.5072 43.4148 38.2984 43.5807 38.1351C43.7466 37.9717 43.957 37.861 44.1856 37.8169C44.4142 37.7728 44.6508 37.7972 44.8655 37.8871C45.0803 37.977 45.2637 38.1284 45.3927 38.3222C45.5217 38.516 45.5905 38.7436 45.5905 38.9764C45.5835 39.2906 45.4543 39.5897 45.2304 39.8102C45.0065 40.0307 44.7055 40.1553 44.3913 40.1575Z" fill="#071013"/>
<path d="M6.44156 15.7177H51.3779L27.1199 2.18042L2.85283 15.7177H6.44156ZM15.3543 12.4469L25.739 6.72312C25.7965 6.67811 25.8635 6.64678 25.9349 6.63148C26.0063 6.61619 26.0802 6.61735 26.1511 6.63485C26.222 6.65236 26.288 6.68576 26.3441 6.73253C26.4002 6.77931 26.4449 6.83823 26.4749 6.90484C26.5657 7.1774 26.5657 7.54081 26.2932 7.63166L15.9994 13.3555C15.9618 13.39 15.9171 13.416 15.8685 13.4317C15.8199 13.4474 15.7685 13.4524 15.7178 13.4463C15.6241 13.448 15.5318 13.4234 15.4515 13.3752C15.3712 13.327 15.306 13.2572 15.2635 13.1738C15.2029 13.1298 15.1552 13.0705 15.1253 13.0018C15.0955 12.9331 15.0847 12.8578 15.094 12.7835C15.1033 12.7092 15.1323 12.6388 15.1781 12.5796C15.2239 12.5204 15.2848 12.4746 15.3543 12.4469Z" fill="#071013"/>
<path d="M3.03452 26.166C3.26773 26.1678 3.49518 26.2386 3.68822 26.3695C3.88125 26.5003 4.03122 26.6854 4.11922 26.9014C4.20723 27.1174 4.22932 27.3545 4.18273 27.5831C4.13614 27.8116 4.02294 28.0212 3.8574 28.1854C3.69187 28.3497 3.4814 28.4613 3.25254 28.5061C3.02368 28.551 2.78667 28.5271 2.57138 28.4374C2.35609 28.3478 2.17216 28.1964 2.04278 28.0024C1.91339 27.8083 1.84434 27.5803 1.84434 27.3471C1.84674 27.033 1.97319 26.7326 2.19613 26.5114C2.41907 26.2901 2.72043 26.166 3.03452 26.166Z" fill="#071013"/>
<path d="M51.2871 7.99512C51.5203 7.99691 51.7477 8.06771 51.9408 8.19857C52.1338 8.32944 52.2838 8.51452 52.3718 8.73049C52.4598 8.94646 52.4819 9.18365 52.4353 9.41216C52.3887 9.64067 52.2755 9.85027 52.11 10.0145C51.9444 10.1788 51.734 10.2904 51.5051 10.3352C51.2762 10.3801 51.0392 10.3562 50.8239 10.2665C50.6086 10.1769 50.4247 10.0255 50.2953 9.83145C50.1659 9.63742 50.0969 9.40943 50.0969 9.17622C50.0993 8.86214 50.2257 8.56173 50.4487 8.34049C50.6716 8.11925 50.973 7.99511 51.2871 7.99512Z" fill="#071013"/>
<path d="M3.03452 49.9697C3.26773 49.9715 3.49518 50.0423 3.68822 50.1732C3.88125 50.3041 4.03122 50.4891 4.11922 50.7051C4.20723 50.9211 4.22932 51.1583 4.18273 51.3868C4.13614 51.6153 4.02294 51.8249 3.8574 51.9892C3.69187 52.1534 3.4814 52.265 3.25254 52.3099C3.02368 52.3547 2.78667 52.3308 2.57138 52.2411C2.35609 52.1515 2.17216 52.0001 2.04278 51.8061C1.91339 51.612 1.84434 51.384 1.84434 51.1508C1.84674 50.8368 1.97319 50.5363 2.19613 50.3151C2.41907 50.0939 2.72043 49.9697 3.03452 49.9697Z" fill="#071013"/>
<path d="M36.3052 5.05935e-10C36.5384 0.00179394 36.7659 0.0725897 36.9589 0.203457C37.152 0.334323 37.3019 0.519404 37.3899 0.735374C37.4779 0.951344 37.5 1.18853 37.4535 1.41704C37.4069 1.64555 37.2937 1.85515 37.1281 2.01943C36.9626 2.1837 36.7521 2.29528 36.5233 2.34013C36.2944 2.38497 36.0574 2.36106 35.8421 2.27141C35.6268 2.18175 35.4429 2.03037 35.3135 1.83634C35.1841 1.64231 35.1151 1.41432 35.1151 1.1811C35.1175 0.867024 35.2439 0.566617 35.4669 0.345374C35.6898 0.124132 35.9912 -9.15088e-06 36.3052 5.05935e-10Z" fill="#071013"/>
<path d="M15.6269 5.05935e-10C15.8601 0.00179394 16.0876 0.0725897 16.2806 0.203457C16.4736 0.334323 16.6236 0.519404 16.7116 0.735374C16.7996 0.951344 16.8217 1.18853 16.7751 1.41704C16.7285 1.64555 16.6153 1.85515 16.4498 2.01943C16.2842 2.1837 16.0738 2.29528 15.8449 2.34013C15.6161 2.38497 15.379 2.36106 15.1638 2.27141C14.9485 2.18175 14.7645 2.03037 14.6352 1.83634C14.5058 1.64231 14.4367 1.41432 14.4367 1.1811C14.4391 0.867024 14.5656 0.566617 14.7885 0.345374C15.0115 0.124132 15.3128 -9.15088e-06 15.6269 5.05935e-10Z" fill="#071013"/>
<path d="M3.03452 9.08545C3.26773 9.08724 3.49518 9.15804 3.68822 9.28891C3.88125 9.41977 4.03122 9.60485 4.11922 9.82082C4.20723 10.0368 4.22932 10.274 4.18273 10.5025C4.13614 10.731 4.02294 10.9406 3.8574 11.1049C3.69187 11.2691 3.4814 11.3807 3.25254 11.4256C3.02368 11.4704 2.78667 11.4465 2.57138 11.3569C2.35609 11.2672 2.17216 11.1158 2.04278 10.9218C1.91339 10.7278 1.84434 10.4998 1.84434 10.2666C1.84674 9.95247 1.97319 9.65207 2.19613 9.43082C2.41907 9.20958 2.72043 9.08544 3.03452 9.08545Z" fill="#071013"/>
<path d="M16.8262 50.6058H6.44155C6.29697 50.6058 6.15831 50.6632 6.05608 50.7655C5.95385 50.8677 5.89642 51.0064 5.89642 51.1509C5.89642 51.2955 5.95385 51.4342 6.05608 51.5364C6.15831 51.6386 6.29697 51.6961 6.44155 51.6961H16.7353C16.8764 51.6856 17.009 51.6248 17.1091 51.5247C17.2091 51.4247 17.2699 51.292 17.2804 51.1509C17.2941 51.0842 17.2925 51.0152 17.2759 50.9491C17.2593 50.883 17.228 50.8215 17.1843 50.7692C17.1407 50.7168 17.0859 50.675 17.0239 50.6467C16.9619 50.6184 16.8943 50.6044 16.8262 50.6058Z" fill="#071013"/>
<path d="M52.4227 50.6058H44.3277C44.1831 50.6058 44.0444 50.6632 43.9422 50.7655C43.84 50.8677 43.7825 51.0063 43.7825 51.1509C43.7825 51.2955 43.84 51.4341 43.9422 51.5364C44.0444 51.6386 44.1831 51.696 44.3277 51.696H52.4227C52.5638 51.6855 52.6965 51.6247 52.7965 51.5247C52.8966 51.4247 52.9574 51.292 52.9679 51.1509C52.9704 51.0787 52.9581 51.0066 52.9316 50.9393C52.9051 50.8721 52.865 50.8109 52.8139 50.7598C52.7627 50.7087 52.7016 50.6686 52.6343 50.6421C52.567 50.6156 52.495 50.6033 52.4227 50.6058Z" fill="#071013"/>
</svg>
