<svg width="61" height="55" viewBox="0 0 61 55" fill="none" xmlns="http://www.w3.org/2000/svg">
<g clip-path="url(#clip0_75_73)">
<path d="M34.658 42.4154C34.6756 42.2835 34.6522 42.1494 34.5911 42.0312C34.5301 41.913 34.4342 41.8164 34.3165 41.7544C34.0028 41.5646 33.6658 41.4164 33.3139 41.3137V43.2968C34.2063 43.2968 34.658 42.9663 34.658 42.4154Z" fill="#071013"/>
<path d="M55.7225 5.50855C56.2658 5.50203 56.795 5.33501 57.2436 5.02844C57.6921 4.72186 58.04 4.28941 58.2434 3.78559C58.4468 3.28178 58.4967 2.72907 58.3867 2.19699C58.2767 1.66491 58.0119 1.17727 57.6254 0.795384C57.2389 0.413494 56.7481 0.15443 56.2148 0.0508074C55.6814 -0.0528148 55.1293 0.00359729 54.628 0.212996C54.1266 0.422396 53.6984 0.775428 53.3972 1.22762C53.096 1.67981 52.9353 2.21097 52.9352 2.75429C52.9495 3.48599 53.2488 4.18321 53.7694 4.6976C54.29 5.212 54.9907 5.50295 55.7225 5.50855Z" fill="#071013"/>
<path d="M32.5427 36.1357C31.7605 36.2459 31.3088 36.5764 31.3088 37.1273C31.2912 37.2592 31.3146 37.3933 31.3756 37.5115C31.4367 37.6297 31.5326 37.7263 31.6503 37.7883C31.9226 37.9814 32.2238 38.1301 32.5427 38.229V36.1357Z" fill="#071013"/>
<path d="M32.7631 50.2377C34.8059 50.2138 36.7961 49.5861 38.4831 48.4338C40.1702 47.2814 41.4786 45.6558 42.2439 43.7615C43.0092 41.8672 43.197 39.7889 42.7839 37.7881C42.3707 35.7873 41.375 33.9533 39.9219 32.5171C38.4689 31.0809 36.6235 30.1065 34.618 29.7167C32.6126 29.3268 30.5366 29.5388 28.6513 30.3261C26.766 31.1134 25.1558 32.4407 24.0231 34.141C22.8904 35.8413 22.286 37.8386 22.2859 39.8817C22.2931 41.2498 22.5699 42.6031 23.1004 43.8642C23.631 45.1253 24.405 46.2694 25.378 47.2312C26.3511 48.193 27.5041 48.9536 28.7713 49.4694C30.0385 49.9853 31.3949 50.2464 32.7631 50.2377ZM31.7605 40.8732C31.1986 40.6529 30.7579 40.5427 30.3062 40.3224C29.9402 40.1547 29.6021 39.9317 29.3037 39.6613C29.0579 39.4113 28.8699 39.1104 28.7528 38.78C28.6075 38.3921 28.5292 37.9823 28.5215 37.5681C28.5116 37.0342 28.6286 36.5055 28.863 36.0257C29.0543 35.5835 29.3146 35.1744 29.6342 34.8139C30.0027 34.4939 30.4191 34.2337 30.8681 34.0427C31.3545 33.8172 31.8855 33.7043 32.4215 33.7122V32.0596H33.6554V33.7122C34.9942 33.8239 36.2901 34.2382 37.4453 34.924L36.2114 37.2376C36.1125 37.1484 36.0012 37.0742 35.8809 37.0173C35.6829 36.8605 35.4538 36.7478 35.2088 36.6867C34.9191 36.5567 34.621 36.4463 34.3165 36.3562C34.0305 36.2424 33.7302 36.1682 33.4241 36.1359V38.4495L33.9859 38.5596C34.5287 38.6761 35.0544 38.8612 35.5504 39.1105C35.9701 39.3075 36.3784 39.5283 36.7732 39.7715C37.0893 40.0543 37.354 40.3898 37.5555 40.763C37.7441 41.2154 37.8197 41.707 37.7758 42.1952C37.7949 42.7642 37.6818 43.3299 37.4453 43.8478C37.2065 44.2589 36.9055 44.6305 36.5529 44.9495C36.1798 45.2974 35.7122 45.5274 35.2088 45.6105C34.7001 45.7377 34.1795 45.8116 33.6554 45.8309V47.8139H32.4215V45.8309C31.634 45.7363 30.8537 45.5891 30.0859 45.3902C29.3578 45.1977 28.6758 44.8604 28.0808 44.3986L29.3037 41.9749C29.3037 42.0851 29.4139 42.0851 29.6342 42.3054C29.9063 42.4312 30.1679 42.5785 30.4164 42.7461C30.7701 42.8439 31.1077 42.9924 31.419 43.1868C31.7605 43.2969 32.2012 43.4071 32.6529 43.5173V41.3139L31.7605 40.8732Z" fill="#071013"/>
<path d="M7.68832 8.26289C7.96465 8.26434 8.23857 8.21137 8.49442 8.10696C8.75028 8.00255 8.98307 7.84879 9.17949 7.65442C9.37591 7.46004 9.53211 7.22887 9.63919 6.97412C9.74628 6.71938 9.80216 6.44604 9.8036 6.1697C9.81135 5.89083 9.76174 5.61331 9.65789 5.35438C9.55404 5.09546 9.39816 4.86064 9.19986 4.66441C9.00157 4.46818 8.76508 4.31475 8.50508 4.21361C8.24508 4.11248 7.96709 4.06578 7.68832 4.07644C7.41343 4.07644 7.14126 4.13061 6.88729 4.2358C6.63333 4.341 6.40255 4.49518 6.20818 4.68956C6.0138 4.88393 5.85962 5.11468 5.75442 5.36864C5.64923 5.6226 5.59509 5.89481 5.59509 6.1697C5.59509 6.44459 5.64923 6.71673 5.75442 6.97069C5.85962 7.22466 6.0138 7.45547 6.20818 7.64984C6.40255 7.84422 6.63333 7.9984 6.88729 8.1036C7.14126 8.20879 7.41343 8.26289 7.68832 8.26289Z" fill="#071013"/>
<path d="M1.44167 46.8223C1.15938 46.8266 0.884651 46.9143 0.652041 47.0743C0.419431 47.2343 0.239303 47.4594 0.134274 47.7215C0.0292436 47.9836 0.00399334 48.2708 0.0617188 48.5472C0.119444 48.8235 0.257571 49.0766 0.458719 49.2747C0.659867 49.4728 0.915064 49.6071 1.19227 49.6606C1.46947 49.7141 1.75631 49.6845 2.01673 49.5754C2.27715 49.4664 2.49955 49.2829 2.65597 49.0479C2.81239 48.8128 2.89586 48.5368 2.89589 48.2545C2.88731 47.8735 2.73068 47.5109 2.45918 47.2435C2.18769 46.9762 1.82271 46.825 1.44167 46.8223Z" fill="#071013"/>
<path d="M8.34933 53.6528H16.0612C16.2366 53.6528 16.4047 53.7224 16.5287 53.8464C16.6526 53.9704 16.7223 54.1385 16.7223 54.3138C16.7223 54.4891 16.6526 54.6573 16.5287 54.7813C16.4047 54.9052 16.2366 54.9748 16.0612 54.9748H8.34933V57.7291H57.1657V54.9748H49.4538C49.2785 54.9748 49.1104 54.9052 48.9864 54.7813C48.8625 54.6573 48.7928 54.4891 48.7928 54.3138C48.7928 54.1385 48.8625 53.9704 48.9864 53.8464C49.1104 53.7224 49.2785 53.6528 49.4538 53.6528H57.1657V22.0339H8.34933V53.6528ZM52.9352 28.2035C52.9479 28.0324 53.0217 27.8715 53.143 27.7502C53.2643 27.6289 53.4251 27.5552 53.5962 27.5424C53.7874 27.5272 53.9769 27.5881 54.1235 27.7119C54.27 27.8357 54.3616 28.0124 54.3784 28.2035V44.729C54.3576 44.8911 54.2784 45.0399 54.1557 45.1478C54.033 45.2557 53.8753 45.3152 53.7119 45.3152C53.5485 45.3152 53.3908 45.2557 53.2681 45.1478C53.1454 45.0399 53.0663 44.8911 53.0454 44.729V28.2035H52.9352ZM48.8038 25.4493C48.8038 25.271 48.8746 25.1001 49.0006 24.974C49.1267 24.848 49.2976 24.7772 49.4758 24.7772C49.6541 24.7772 49.825 24.848 49.9511 24.974C50.0771 25.1001 50.1479 25.271 50.1479 25.4493V30.9578C50.1479 31.136 50.0771 31.3069 49.9511 31.433C49.825 31.559 49.6541 31.6298 49.4758 31.6298C49.2976 31.6298 49.1267 31.559 49.0006 31.433C48.8746 31.3069 48.8038 31.136 48.8038 30.9578V25.4493ZM46.6885 54.3138C46.6929 54.6028 46.6111 54.8866 46.4535 55.1288C46.2959 55.3711 46.0697 55.5609 45.8037 55.674C45.5377 55.7872 45.2441 55.8184 44.9603 55.7639C44.6764 55.7094 44.4153 55.5716 44.2101 55.368C44.005 55.1644 43.8651 54.9044 43.8084 54.621C43.7518 54.3375 43.7808 54.0437 43.8919 53.7769C44.003 53.51 44.1911 53.2824 44.4322 53.1229C44.6732 52.9635 44.9563 52.8794 45.2453 52.8816C45.6244 52.8872 45.9866 53.0395 46.2558 53.3066C46.5249 53.5737 46.68 53.9347 46.6885 54.3138ZM32.7631 28.2035C35.0664 28.2318 37.31 28.9406 39.2115 30.2408C41.1131 31.5411 42.5875 33.3747 43.4495 35.5109C44.3115 37.6471 44.5224 39.9905 44.0557 42.2463C43.5891 44.5021 42.4657 46.5696 40.827 48.1885C39.1882 49.8074 37.1072 50.9054 34.8459 51.3446C32.5846 51.7837 30.2439 51.5442 28.1184 50.6563C25.9928 49.7683 24.1774 48.2716 22.9004 46.3544C21.6234 44.4371 20.942 42.1851 20.9418 39.8815C20.9504 38.3383 21.2632 36.8119 21.8621 35.3897C22.461 33.9674 23.3343 32.6771 24.4321 31.5925C25.53 30.508 26.8309 29.6504 28.2603 29.0689C29.6898 28.4874 31.2199 28.1933 32.7631 28.2035ZM20.2808 52.9918C20.563 52.9961 20.8378 53.0838 21.0704 53.2438C21.303 53.4037 21.4831 53.6289 21.5881 53.891C21.6932 54.153 21.7184 54.4403 21.6607 54.7166C21.6029 54.993 21.4649 55.2462 21.2637 55.4443C21.0626 55.6424 20.8073 55.7766 20.5301 55.8301C20.2529 55.8836 19.9661 55.8539 19.7057 55.7449C19.4452 55.6359 19.2229 55.4524 19.0665 55.2173C18.91 54.9823 18.8266 54.7063 18.8265 54.424C18.8219 54.2328 18.8564 54.0426 18.9282 53.8653C18.9999 53.6879 19.1072 53.5272 19.2435 53.393C19.3798 53.2587 19.5421 53.1539 19.7206 53.0849C19.899 53.0159 20.0896 52.9842 20.2808 52.9918ZM15.3782 25.4493C15.3991 25.2872 15.4782 25.1383 15.6009 25.0305C15.7236 24.9226 15.8813 24.863 16.0447 24.863C16.2081 24.863 16.3659 24.9226 16.4885 25.0305C16.6112 25.1383 16.6904 25.2872 16.7112 25.4493V30.9578C16.6904 31.1198 16.6112 31.2687 16.4885 31.3765C16.3659 31.4844 16.2081 31.5439 16.0447 31.5439C15.8813 31.5439 15.7236 31.4844 15.6009 31.3765C15.4782 31.2687 15.3991 31.1198 15.3782 30.9578V25.4493ZM11.1366 28.2035C11.1366 28.0253 11.2074 27.8543 11.3335 27.7283C11.4595 27.6023 11.6304 27.5314 11.8087 27.5314C11.9869 27.5314 12.1578 27.6023 12.2839 27.7283C12.4099 27.8543 12.4807 28.0253 12.4807 28.2035V44.729C12.4807 44.9073 12.4099 45.0782 12.2839 45.2042C12.1578 45.3303 11.9869 45.4011 11.8087 45.4011C11.6304 45.4011 11.4595 45.3303 11.3335 45.2042C11.2074 45.0782 11.1366 44.9073 11.1366 44.729V28.2035Z" fill="#071013"/>
<path d="M32.7631 4.18652L3.33658 20.6019H62.1785L32.7631 4.18652ZM31.7605 10.9069L19.2782 17.8477H18.8265C18.713 17.8497 18.6011 17.8198 18.5037 17.7614C18.4063 17.7029 18.3273 17.6183 18.2757 17.5172C18.2211 17.4484 18.1831 17.368 18.1645 17.2821C18.146 17.1963 18.1474 17.1074 18.1687 17.0222C18.19 16.937 18.2306 16.8579 18.2874 16.7909C18.3441 16.7239 18.4155 16.6708 18.496 16.6358L31.0885 9.69503C31.1582 9.64046 31.2395 9.60249 31.3261 9.58395C31.4126 9.5654 31.5023 9.56682 31.5883 9.58805C31.6743 9.60928 31.7543 9.64975 31.8223 9.70646C31.8903 9.76318 31.9445 9.83462 31.9808 9.91539C32.0317 9.99488 32.0665 10.0837 32.0829 10.1766C32.0994 10.2696 32.0974 10.3648 32.0769 10.457C32.0564 10.5491 32.0179 10.6363 31.9636 10.7136C31.9093 10.7908 31.8403 10.8565 31.7605 10.9069Z" fill="#071013"/>
</g>
<defs>
<clipPath id="clip0_75_73">
<rect width="60.6259" height="55" fill="white"/>
</clipPath>
</defs>
</svg>
