<svg width="58" height="55" viewBox="0 0 58 55" fill="none" xmlns="http://www.w3.org/2000/svg">
<g clip-path="url(#clip0_75_106)">
<path d="M4.81006 42.8533C4.32039 42.8533 3.85078 43.0478 3.50453 43.394C3.15829 43.7403 2.96381 44.2099 2.96381 44.6996C2.96381 45.1892 3.15829 45.6588 3.50453 46.0051C3.85078 46.3513 4.32039 46.5459 4.81006 46.5459C5.05674 46.5566 5.30298 46.5165 5.53346 46.4279C5.76394 46.3393 5.97373 46.2042 6.14969 46.0309C6.32565 45.8577 6.46401 45.6501 6.5562 45.421C6.64839 45.192 6.6924 44.9464 6.68549 44.6996C6.6614 44.2127 6.45526 43.7526 6.10788 43.4107C5.7605 43.0687 5.29725 42.8697 4.81006 42.8533Z" fill="#071013"/>
<path d="M54.553 39.2579C54.5569 39.003 54.4847 38.7527 54.3457 38.539C54.2066 38.3254 54.0071 38.1579 53.7725 38.0581C53.538 37.9584 53.279 37.9308 53.0286 37.9788C52.7783 38.0269 52.5479 38.1485 52.367 38.328C52.186 38.5076 52.0627 38.737 52.0127 38.987C51.9627 39.237 51.9883 39.4962 52.0863 39.7315C52.1843 39.9668 52.3502 40.1677 52.5628 40.3083C52.7754 40.4489 53.0251 40.523 53.28 40.5211C53.6144 40.5162 53.9339 40.3818 54.1713 40.1462C54.4087 39.9107 54.5455 39.5922 54.553 39.2579Z" fill="#071013"/>
<path d="M34.1078 52.5706L28.015 50.1413C27.896 50.0971 27.7933 50.0175 27.7209 49.9133C27.6484 49.8091 27.6095 49.6852 27.6095 49.5582C27.6095 49.4313 27.6484 49.3073 27.7209 49.2031C27.7933 49.0989 27.896 49.0194 28.015 48.9752L34.1078 46.5458H47.1776V10.5918C47.179 10.0386 47.0701 9.49063 46.8576 8.97989C46.645 8.46915 46.3329 8.00583 45.9395 7.61692C45.5461 7.22802 45.0792 6.92131 44.566 6.71467C44.0529 6.50803 43.5037 6.4056 42.9505 6.41334H14.0513C13.3702 5.82423 12.4928 5.51213 11.5927 5.53877C11.1053 5.53621 10.6221 5.62969 10.1707 5.81388C9.71939 5.99806 9.3088 6.26936 8.9623 6.61225C8.6158 6.95514 8.3402 7.36292 8.1513 7.81231C7.96239 8.26169 7.86388 8.74388 7.86133 9.23135V31.6784C7.86133 32.3304 7.6023 32.9557 7.14125 33.4168C6.6802 33.8778 6.05485 34.1368 5.40282 34.1368C4.75079 34.1368 4.12551 33.8778 3.66445 33.4168C3.2034 32.9557 2.94437 32.3304 2.94437 31.6784V4.95574C2.92596 4.81283 2.85614 4.68151 2.74794 4.58636C2.63974 4.4912 2.50058 4.43872 2.35649 4.43872C2.2124 4.43872 2.07319 4.4912 1.96499 4.58636C1.85679 4.68151 1.78697 4.81283 1.76855 4.95574V31.6784C1.81743 32.6363 2.23243 33.5389 2.92776 34.1997C3.6231 34.8605 4.54567 35.2289 5.50489 35.2289C6.46411 35.2289 7.38669 34.8605 8.08202 34.1997C8.77736 33.5389 9.1923 32.6363 9.24117 31.6784V9.23135C9.33124 8.6517 9.62559 8.12335 10.0711 7.74173C10.5166 7.3601 11.0839 7.15035 11.6705 7.15035C12.2571 7.15035 12.8244 7.3601 13.2699 7.74173C13.7154 8.12335 14.0098 8.6517 14.0998 9.23135V54.9999H47.2262V52.5706H34.1078ZM33.1361 44.1165H18.3755C18.2208 44.1165 18.0725 44.0551 17.9632 43.9458C17.8539 43.8364 17.7924 43.6881 17.7924 43.5335C17.7924 43.3788 17.8539 43.2305 17.9632 43.1212C18.0725 43.0119 18.2208 42.9504 18.3755 42.9504H33.1263C33.281 42.9504 33.4293 43.0119 33.5386 43.1212C33.648 43.2305 33.7094 43.3788 33.7094 43.5335C33.7094 43.6881 33.648 43.8364 33.5386 43.9458C33.4293 44.0551 33.281 44.1165 33.1263 44.1165H33.1361ZM43.1644 21.8639C43.2773 21.9148 43.3736 21.9965 43.4423 22.0996C43.5111 22.2027 43.5494 22.3231 43.553 22.4469C43.5415 22.5994 43.4751 22.7425 43.3661 22.8497C43.2571 22.9569 43.1129 23.021 42.9603 23.0299H40.1131V29.8321H42.9603C43.1129 29.841 43.2571 29.9051 43.3661 30.0123C43.4751 30.1195 43.5415 30.2626 43.553 30.4151V37.4116C43.5415 37.564 43.4751 37.7071 43.3661 37.8144C43.2571 37.9216 43.1129 37.9856 42.9603 37.9946H33.826C33.6733 37.9856 33.5292 37.9216 33.4202 37.8144C33.3112 37.7071 33.2447 37.564 33.2332 37.4116V31.1925C33.2332 30.5662 32.9844 29.9656 32.5416 29.5228C32.0988 29.08 31.4982 28.8312 30.8719 28.8312C30.2457 28.8312 29.6451 29.08 29.2022 29.5228C28.7594 29.9656 28.5106 30.5662 28.5106 31.1925V37.4116C28.4994 37.5625 28.4344 37.7043 28.3274 37.8113C28.2204 37.9183 28.0785 37.9834 27.9275 37.9946H18.6767C18.5241 37.9856 18.3799 37.9216 18.2708 37.8144C18.1618 37.7071 18.0955 37.564 18.084 37.4116V30.4151C18.0955 30.2626 18.1618 30.1195 18.2708 30.0123C18.3799 29.9051 18.5241 29.841 18.6767 29.8321H21.2324V23.0299H18.3755C18.2378 23.0263 18.1054 22.9764 17.9996 22.8883C17.8938 22.8001 17.8208 22.6788 17.7924 22.5441C17.7643 22.4806 17.7496 22.412 17.7492 22.3425C17.7487 22.2731 17.7627 22.2043 17.79 22.1405C17.8174 22.0766 17.8576 22.0191 17.9082 21.9716C17.9587 21.924 18.0186 21.8873 18.084 21.8639L30.3763 14.9646C30.4661 14.9169 30.5662 14.892 30.6678 14.892C30.7695 14.892 30.8696 14.9169 30.9594 14.9646L43.1644 21.8639ZM41.6873 9.42569C41.9363 9.42953 42.1786 9.50686 42.3838 9.64797C42.5889 9.78909 42.7478 9.9877 42.8405 10.2188C42.9331 10.45 42.9553 10.7033 42.9044 10.9471C42.8535 11.1908 42.7317 11.4141 42.5543 11.5888C42.3769 11.7636 42.1517 11.882 41.9072 11.9292C41.6627 11.9763 41.4098 11.9502 41.1801 11.8541C40.9504 11.7579 40.7542 11.596 40.6162 11.3887C40.4783 11.1814 40.4046 10.938 40.4046 10.6889C40.4121 10.3546 40.5489 10.0362 40.7863 9.80061C41.0237 9.56503 41.3432 9.43064 41.6776 9.42569H41.6873ZM15.2465 10.1059H37.917C38.0716 10.1059 38.2199 10.1673 38.3292 10.2767C38.4386 10.386 38.5 10.5343 38.5 10.6889C38.5 10.8436 38.4386 10.9919 38.3292 11.1012C38.2199 11.2106 38.0716 11.272 37.917 11.272H15.2367L15.2465 10.1059ZM22.0486 51.4045H18.3074C18.1528 51.4045 18.0045 51.3431 17.8952 51.2337C17.7858 51.1244 17.7244 50.9761 17.7244 50.8215C17.7244 50.6668 17.7858 50.5185 17.8952 50.4092C18.0045 50.2998 18.1528 50.2384 18.3074 50.2384H22.0486C22.1995 50.2496 22.3414 50.3147 22.4484 50.4217C22.5554 50.5287 22.6204 50.6705 22.6317 50.8215C22.6347 50.9014 22.6207 50.981 22.5906 51.0551C22.5605 51.1292 22.5151 51.196 22.4572 51.2512C22.3993 51.3063 22.3303 51.3485 22.2548 51.3749C22.1793 51.4014 22.0991 51.4115 22.0195 51.4045H22.0486ZM24.5071 47.7119H18.3074C18.1528 47.7119 18.0045 47.6505 17.8952 47.5412C17.7858 47.4318 17.7244 47.2835 17.7244 47.1289C17.7244 46.9742 17.7858 46.826 17.8952 46.7166C18.0045 46.6073 18.1528 46.5458 18.3074 46.5458H24.5071C24.658 46.5571 24.7998 46.6221 24.9068 46.7291C25.0138 46.8361 25.0789 46.978 25.0901 47.1289C25.0932 47.2088 25.0792 47.2884 25.0491 47.3625C25.019 47.4366 24.9735 47.5034 24.9156 47.5586C24.8577 47.6137 24.7887 47.6559 24.7133 47.6824C24.6378 47.7088 24.5576 47.7189 24.4779 47.7119H24.5071Z" fill="#071013"/>
<path d="M20.6396 21.7669H21.8251H39.4134H40.599L30.5707 16.228L20.6396 21.7669Z" fill="#071013"/>
<path d="M22.3693 30.4152V36.7314H26.9947V31.0954C26.9947 30.1315 27.3776 29.2071 28.0591 28.5256C28.7407 27.844 29.6651 27.4611 30.629 27.4611C31.5928 27.4611 32.5173 27.844 33.1988 28.5256C33.8804 29.2071 34.2632 30.1315 34.2632 31.0954V36.7314H38.7915V23.03H22.3693V30.4152Z" fill="#071013"/>
<path d="M39.8118 47.7119H37.3533V51.4045H39.8118V47.7119Z" fill="#071013"/>
<path d="M21.2323 31.0955H18.9682V36.8287H21.2323V31.0955Z" fill="#071013"/>
<path d="M54.553 7.6766C55.0322 7.67085 55.499 7.5235 55.8946 7.25309C56.2903 6.98268 56.5971 6.60129 56.7765 6.15691C56.9559 5.71253 56.9999 5.22502 56.9029 4.75571C56.8059 4.28641 56.5722 3.85627 56.2313 3.51943C55.8905 3.18259 55.4576 2.95411 54.9871 2.86271C54.5167 2.77131 54.0298 2.82108 53.5875 3.00578C53.1453 3.19048 52.7677 3.50185 52.502 3.90069C52.2363 4.29954 52.0946 4.76805 52.0945 5.24727C52.1257 5.88649 52.3956 6.49072 52.8508 6.94054C53.306 7.39036 53.9135 7.65303 54.553 7.6766Z" fill="#071013"/>
<path d="M42.2703 31.0955H40.0062V36.8287H42.2703V31.0955Z" fill="#071013"/>
<path d="M52.1917 47.7119H41.0848V51.4045H52.1917V47.7119Z" fill="#071013"/>
<path d="M55.243 47.7119H53.3772V51.4045H55.243C55.4867 51.4058 55.7283 51.359 55.954 51.2669C56.1796 51.1748 56.385 51.0392 56.5582 50.8678C56.7315 50.6963 56.8692 50.4924 56.9637 50.2677C57.0581 50.043 57.1074 49.8019 57.1087 49.5582C57.0742 49.0766 56.8661 48.6239 56.5229 48.2843C56.1797 47.9447 55.7249 47.7413 55.243 47.7119Z" fill="#071013"/>
<path d="M34.409 51.4045H36.1776V47.7119H34.409L29.7836 49.5582L34.409 51.4045Z" fill="#071013"/>
<path d="M52.8817 14.5759C53.1311 14.5778 53.3744 14.6536 53.5808 14.7935C53.7873 14.9335 53.9476 15.1315 54.0418 15.3624C54.1359 15.5934 54.1596 15.8471 54.1097 16.0915C54.0599 16.3359 53.9388 16.5601 53.7618 16.7358C53.5847 16.9115 53.3596 17.0309 53.1148 17.0788C52.87 17.1268 52.6166 17.1012 52.3863 17.0053C52.1561 16.9094 51.9593 16.7475 51.8209 16.54C51.6825 16.3325 51.6087 16.0886 51.6087 15.8392C51.6113 15.5033 51.7465 15.182 51.985 14.9453C52.2234 14.7087 52.5457 14.5759 52.8817 14.5759Z" fill="#071013"/>
<path d="M8.64842 36.4398C8.8974 36.4437 9.13972 36.521 9.34489 36.6621C9.55006 36.8032 9.70894 37.0019 9.80158 37.233C9.89421 37.4641 9.91643 37.7175 9.86551 37.9612C9.8146 38.205 9.69282 38.4283 9.51541 38.603C9.33799 38.7777 9.11284 38.8961 8.86834 38.9433C8.62383 38.9905 8.3709 38.9644 8.1412 38.8682C7.9115 38.7721 7.71531 38.6102 7.57734 38.4029C7.43937 38.1956 7.36575 37.9521 7.36572 37.7031C7.3657 37.5356 7.39901 37.3697 7.4637 37.2151C7.5284 37.0606 7.62321 36.9205 7.74258 36.8029C7.86195 36.6854 8.00348 36.5927 8.15899 36.5304C8.31451 36.468 8.48089 36.4373 8.64842 36.4398Z" fill="#071013"/>
<path d="M4.87809 51.0159C5.12707 51.0197 5.3694 51.0971 5.57457 51.2382C5.77973 51.3793 5.93861 51.5779 6.03125 51.8091C6.12389 52.0402 6.14616 52.2936 6.09525 52.5373C6.04433 52.7811 5.9225 53.0043 5.74508 53.1791C5.56766 53.3538 5.34257 53.4722 5.09807 53.5194C4.85357 53.5666 4.60057 53.5404 4.37087 53.4443C4.14117 53.3481 3.94498 53.1862 3.80702 52.9789C3.66905 52.7716 3.59543 52.5282 3.5954 52.2792C3.59667 52.112 3.63084 51.9467 3.69599 51.7927C3.76114 51.6388 3.85599 51.4992 3.9751 51.3819C4.09421 51.2646 4.23527 51.1719 4.39021 51.1091C4.54514 51.0463 4.71092 51.0146 4.87809 51.0159Z" fill="#071013"/>
<path d="M1.27297 5.4107e-10C1.52239 0.00191871 1.76571 0.0776385 1.97217 0.217608C2.17863 0.357577 2.339 0.555531 2.43312 0.786522C2.52725 1.01751 2.55087 1.2712 2.50103 1.5156C2.4512 1.76001 2.33017 1.98419 2.15312 2.15988C1.97607 2.33558 1.75095 2.45494 1.50617 2.5029C1.26139 2.55086 1.00787 2.52528 0.777611 2.42939C0.547347 2.3335 0.350653 2.17158 0.21227 1.96406C0.0738868 1.75653 7.37976e-06 1.51269 0 1.26325C0.00256439 0.927328 0.137811 0.606041 0.376261 0.369411C0.614712 0.132781 0.937031 -9.78735e-06 1.27297 5.4107e-10Z" fill="#071013"/>
<path d="M23.3895 5.4107e-10C23.639 0.00191871 23.8822 0.0776385 24.0887 0.217608C24.2951 0.357577 24.4556 0.555531 24.5497 0.786522C24.6438 1.01751 24.6674 1.2712 24.6176 1.5156C24.5678 1.76001 24.4467 1.98419 24.2696 2.15988C24.0926 2.33558 23.8675 2.45494 23.6227 2.5029C23.378 2.55086 23.1245 2.52528 22.8942 2.42939C22.6639 2.3335 22.4672 2.17158 22.3288 1.96406C22.1905 1.75653 22.1166 1.51269 22.1166 1.26325C22.1191 0.927328 22.2544 0.606041 22.4928 0.369411C22.7313 0.132781 23.0536 -9.78735e-06 23.3895 5.4107e-10Z" fill="#071013"/>
<path d="M55.3401 24.2932C55.5895 24.2951 55.8328 24.3709 56.0392 24.5108C56.2457 24.6508 56.4061 24.8487 56.5003 25.0797C56.5944 25.3107 56.618 25.5644 56.5682 25.8088C56.5183 26.0532 56.3973 26.2774 56.2202 26.4531C56.0432 26.6288 55.8181 26.7482 55.5733 26.7961C55.3285 26.8441 55.075 26.8185 54.8447 26.7226C54.6145 26.6267 54.4178 26.4648 54.2794 26.2573C54.141 26.0497 54.0671 25.8059 54.0671 25.5565C54.0697 25.2205 54.2049 24.8993 54.4434 24.6626C54.6819 24.426 55.0042 24.2932 55.3401 24.2932Z" fill="#071013"/>
</g>
<defs>
<clipPath id="clip0_75_106">
<rect width="57.1087" height="55" fill="white"/>
</clipPath>
</defs>
</svg>
